<?xml version="1.0" encoding="UTF-8"?>
<!DOCTYPE svg PUBLIC "-//W3C//DTD SVG 1.1//EN" "http://www.w3.org/Graphics/SVG/1.1/DTD/svg11.dtd">
<svg xmlns="http://www.w3.org/2000/svg" version="1.1" width="500px" height="500px" style="shape-rendering:geometricPrecision; text-rendering:geometricPrecision; image-rendering:optimizeQuality; fill-rule:evenodd; clip-rule:evenodd" xmlns:xlink="http://www.w3.org/1999/xlink">
<g><path style="opacity:1" fill="#856f31" d="M 320.5,46.5 C 319.326,48.3678 319.993,49.3678 322.5,49.5C 325.833,53.8333 329.167,58.1667 332.5,62.5C 332.427,64.0269 333.094,65.0269 334.5,65.5C 334.833,65.5 335.167,65.5 335.5,65.5C 335.5,66.1667 335.5,66.8333 335.5,67.5C 336.751,72.2852 338.751,76.6185 341.5,80.5C 342.976,84.0235 344.143,87.6901 345,91.5C 345.953,101.173 346.953,110.84 348,120.5C 353.544,128.187 356.044,136.854 355.5,146.5C 361.345,154.212 363.345,162.879 361.5,172.5C 360.833,169.5 360.167,166.5 359.5,163.5C 359.012,158.368 357.346,153.701 354.5,149.5C 353.064,144.153 352.064,138.819 351.5,133.5C 350.484,129.952 348.984,126.619 347,123.5C 346.536,124.094 346.369,124.761 346.5,125.5C 345.833,126.5 345.167,127.5 344.5,128.5C 348.196,98.9621 340.196,73.2954 320.5,51.5C 303.336,33.0928 282.002,23.5928 256.5,23C 249.82,22.5265 243.154,22.6931 236.5,23.5C 233.37,23.6997 230.37,24.3664 227.5,25.5C 208.737,23.1761 191.403,26.8427 175.5,36.5C 168.721,40.5574 162.721,45.5574 157.5,51.5C 156.706,55.3577 156.04,59.3577 155.5,63.5C 154.431,65.9687 153.098,68.3021 151.5,70.5C 148.821,74.5335 146.155,78.5335 143.5,82.5C 142.833,82.5 142.167,82.5 141.5,82.5C 141.833,81.8333 142.167,81.1667 142.5,80.5C 144.535,78.062 146.201,75.3953 147.5,72.5C 150.891,68.3848 153.224,63.7181 154.5,58.5C 155.201,55.4371 155.868,52.2704 156.5,49C 155.748,48.3292 155.414,47.4959 155.5,46.5C 156.117,46.6107 156.617,46.944 157,47.5C 176.872,27.9939 200.705,19.9939 228.5,23.5C 255.201,17.6656 280.535,21.1656 304.5,34C 309.995,37.9996 315.329,42.1663 320.5,46.5 Z"/></g>
<g><path style="opacity:1" fill="#896d0c" d="M 236.5,23.5 C 236.082,24.2216 235.416,24.7216 234.5,25C 239.512,26.5001 244.178,28.6668 248.5,31.5C 249.82,33.8171 251.486,35.8171 253.5,37.5C 252.041,37.5674 250.708,37.2341 249.5,36.5C 248.833,35.8333 248.167,35.1667 247.5,34.5C 245.422,31.9493 242.756,30.116 239.5,29C 235.457,27.5086 231.457,26.3419 227.5,25.5C 230.37,24.3664 233.37,23.6997 236.5,23.5 Z"/></g>
<g><path style="opacity:1" fill="#455551" d="M 347.5,28.5 C 348.562,29.5754 348.562,30.5754 347.5,31.5C 341.87,30.0371 336.537,30.7037 331.5,33.5C 331.557,32.391 331.89,31.391 332.5,30.5C 337.22,27.9921 342.22,27.3254 347.5,28.5 Z"/></g>
<g><path style="opacity:0.984" fill="#576764" d="M 155.5,46.5 C 155.414,47.4959 155.748,48.3292 156.5,49C 155.868,52.2704 155.201,55.4371 154.5,58.5C 154.653,41.1501 145.987,31.9834 128.5,31C 127.944,30.6174 127.611,30.1174 127.5,29.5C 140.979,27.9227 150.313,33.5894 155.5,46.5 Z"/></g>
<g><path style="opacity:0.945" fill="#3d4f4d" d="M 354.5,31.5 C 355.5,32.5 356.5,33.5 357.5,34.5C 357.631,35.3764 357.298,36.0431 356.5,36.5C 354.833,35.1667 353.167,33.8333 351.5,32.5C 352.325,31.6143 353.325,31.281 354.5,31.5 Z"/></g>
<g><path style="opacity:1" fill="#d7b631" d="M 248.5,31.5 C 275.142,43.6581 300.142,58.4914 323.5,76C 325.808,78.1277 327.474,80.6277 328.5,83.5C 318.026,75.3563 307.026,68.023 295.5,61.5C 291.072,58.1089 286.406,54.9422 281.5,52C 272.026,47.3394 262.692,42.5061 253.5,37.5C 251.486,35.8171 249.82,33.8171 248.5,31.5 Z"/></g>
<g><path style="opacity:1" fill="#f1d03e" d="M 320.5,51.5 C 321.259,53.4358 322.259,55.2691 323.5,57C 323.167,57.5 322.833,58 322.5,58.5C 321.06,57.0476 319.394,56.0476 317.5,55.5C 314.201,53.3557 310.868,51.5223 307.5,50C 320.751,59.2494 330.251,71.4161 336,86.5C 336.495,88.4727 336.662,90.4727 336.5,92.5C 333.608,89.729 330.942,86.729 328.5,83.5C 327.474,80.6277 325.808,78.1277 323.5,76C 300.142,58.4914 275.142,43.6581 248.5,31.5C 244.178,28.6668 239.512,26.5001 234.5,25C 235.416,24.7216 236.082,24.2216 236.5,23.5C 243.154,22.6931 249.82,22.5265 256.5,23C 282.002,23.5928 303.336,33.0928 320.5,51.5 Z"/></g>
<g><path style="opacity:1" fill="#43534d" d="M 332.5,30.5 C 331.89,31.391 331.557,32.391 331.5,33.5C 325.997,37.3567 322.997,42.69 322.5,49.5C 319.993,49.3678 319.326,48.3678 320.5,46.5C 321.482,38.8574 325.482,33.5241 332.5,30.5 Z"/></g>
<g><path style="opacity:1" fill="#70a4a5" d="M 347.5,28.5 C 350.241,28.7073 352.574,29.7073 354.5,31.5C 353.325,31.281 352.325,31.6143 351.5,32.5C 353.167,33.8333 354.833,35.1667 356.5,36.5C 357.298,36.0431 357.631,35.3764 357.5,34.5C 358.674,35.5137 359.34,36.847 359.5,38.5C 358.577,37.6971 357.577,37.5304 356.5,38C 360.313,45.7095 360.48,53.5429 357,61.5C 355.629,64.2661 353.796,66.5994 351.5,68.5C 351.44,67.9569 351.107,67.6236 350.5,67.5C 347.256,69.8937 343.923,70.0604 340.5,68C 344.424,64.0185 346.424,59.5185 346.5,54.5C 347.724,51.4953 347.724,48.4953 346.5,45.5C 343.707,44.0275 341.707,44.6942 340.5,47.5C 335.634,51.1669 332.968,56.1669 332.5,62.5C 329.167,58.1667 325.833,53.8333 322.5,49.5C 322.997,42.69 325.997,37.3567 331.5,33.5C 336.537,30.7037 341.87,30.0371 347.5,31.5C 348.562,30.5754 348.562,29.5754 347.5,28.5 Z"/></g>
<g><path style="opacity:1" fill="#f2d13f" d="M 227.5,25.5 C 231.457,26.3419 235.457,27.5086 239.5,29C 242.756,30.116 245.422,31.9493 247.5,34.5C 242.735,41.0996 237.069,46.9329 230.5,52C 214.077,62.3794 196.411,69.7127 177.5,74C 174.167,74.6667 170.833,74.6667 167.5,74C 176.675,70.613 185.342,66.2797 193.5,61C 194.833,59.6667 196.167,58.3333 197.5,57C 193.187,58.9958 188.854,61.3291 184.5,64C 176.91,67.6557 169.576,70.8223 162.5,73.5C 164.526,70.4822 166.526,67.4822 168.5,64.5C 165.473,66.8605 162.806,69.5271 160.5,72.5C 158.833,72.5 157.167,72.5 155.5,72.5C 155.85,76.0543 155.184,79.3876 153.5,82.5C 152.675,83.3857 151.675,83.719 150.5,83.5C 151.309,85.9729 151.642,88.3063 151.5,90.5C 153.618,89.0541 155.951,88.3874 158.5,88.5C 155.736,97.7123 150.736,105.379 143.5,111.5C 142.337,106.198 142.171,100.864 143,95.5C 145.914,87.3478 149.081,79.3478 152.5,71.5C 152.376,70.8933 152.043,70.56 151.5,70.5C 153.098,68.3021 154.431,65.9687 155.5,63.5C 161.303,56.8651 167.636,50.6984 174.5,45C 173.181,44.805 171.847,44.9717 170.5,45.5C 172.42,42.6612 174.087,39.6612 175.5,36.5C 191.403,26.8427 208.737,23.1761 227.5,25.5 Z"/></g>
<g><path style="opacity:1" fill="#364b48" d="M 359.5,38.5 C 360.268,39.2625 360.768,40.2625 361,41.5C 361.499,45.8206 361.666,50.1539 361.5,54.5C 359.837,56.4385 359.171,58.7718 359.5,61.5C 358.141,66.5734 355.141,70.2401 350.5,72.5C 350.433,71.0413 350.766,69.7079 351.5,68.5C 353.796,66.5994 355.629,64.2661 357,61.5C 360.48,53.5429 360.313,45.7095 356.5,38C 357.577,37.5304 358.577,37.6971 359.5,38.5 Z"/></g>
<g><path style="opacity:1" fill="#d8b734" d="M 175.5,36.5 C 174.087,39.6612 172.42,42.6612 170.5,45.5C 165.864,49.3043 161.697,53.6377 158,58.5C 157.503,56.1902 157.337,53.8568 157.5,51.5C 162.721,45.5574 168.721,40.5574 175.5,36.5 Z"/></g>
<g><path style="opacity:1" fill="#786a25" d="M 249.5,36.5 C 250.708,37.2341 252.041,37.5674 253.5,37.5C 262.692,42.5061 272.026,47.3394 281.5,52C 286.406,54.9422 291.072,58.1089 295.5,61.5C 280.949,54.2929 266.616,46.6262 252.5,38.5C 250.712,39.2826 249.712,40.6159 249.5,42.5C 246.5,45.8333 243.5,49.1667 240.5,52.5C 235.797,55.5136 231.13,58.5136 226.5,61.5C 225.833,61.5 225.167,61.5 224.5,61.5C 233.013,56.1683 240.847,49.835 248,42.5C 248.813,40.5643 249.313,38.5643 249.5,36.5 Z"/></g>
<g><path style="opacity:1" fill="#1d4240" d="M 346.5,54.5 C 345.833,55.5 345.167,56.5 344.5,57.5C 345.114,53.8648 345.448,50.1981 345.5,46.5C 343.784,46.6287 342.117,46.962 340.5,47.5C 341.707,44.6942 343.707,44.0275 346.5,45.5C 347.724,48.4953 347.724,51.4953 346.5,54.5 Z"/></g>
<g><path style="opacity:0.966" fill="#4b5d57" d="M 124.5,30.5 C 126.028,30.5173 126.528,31.184 126,32.5C 119.359,35.141 114.692,39.8076 112,46.5C 110.08,55.7065 111.913,64.0398 117.5,71.5C 118.689,72.4287 120.022,72.762 121.5,72.5C 122.808,73.2323 124.142,74.0656 125.5,75C 124.5,75.3333 123.5,75.6667 122.5,76C 128.497,80.1007 135.163,81.6007 142.5,80.5C 142.167,81.1667 141.833,81.8333 141.5,82.5C 138.99,82.0535 136.99,82.7202 135.5,84.5C 134.833,84.5 134.167,84.5 133.5,84.5C 113.232,77.6433 105.732,63.6433 111,42.5C 113.836,36.4904 118.336,32.4904 124.5,30.5 Z"/></g>
<g><path style="opacity:1" fill="#648f8c" d="M 344.5,57.5 C 343.21,58.0577 342.377,59.0577 342,60.5C 341.086,56.8149 340.419,57.1482 340,61.5C 338.951,63.3844 337.451,64.7177 335.5,65.5C 335.167,65.5 334.833,65.5 334.5,65.5C 334.618,62.3117 335.451,59.3117 337,56.5C 338.303,55.8878 339.47,55.5545 340.5,55.5C 339.737,54.2807 338.737,53.2807 337.5,52.5C 338.763,50.9713 339.763,49.3046 340.5,47.5C 342.117,46.962 343.784,46.6287 345.5,46.5C 345.448,50.1981 345.114,53.8648 344.5,57.5 Z"/></g>
<g><path style="opacity:1" fill="#897013" d="M 155.5,63.5 C 156.04,59.3577 156.706,55.3577 157.5,51.5C 157.337,53.8568 157.503,56.1902 158,58.5C 161.697,53.6377 165.864,49.3043 170.5,45.5C 171.847,44.9717 173.181,44.805 174.5,45C 167.636,50.6984 161.303,56.8651 155.5,63.5 Z"/></g>
<g><path style="opacity:1" fill="#866a0d" d="M 317.5,55.5 C 329.923,66.0066 337.423,79.3399 340,95.5C 341.845,108.097 342.845,120.763 343,133.5C 343.352,131.753 343.852,130.086 344.5,128.5C 345.167,127.5 345.833,126.5 346.5,125.5C 346.706,130.619 345.373,135.286 342.5,139.5C 341.833,130.833 341.167,122.167 340.5,113.5C 340.599,110.763 340.265,108.096 339.5,105.5C 340.035,100.688 339.035,96.3548 336.5,92.5C 336.662,90.4727 336.495,88.4727 336,86.5C 330.251,71.4161 320.751,59.2494 307.5,50C 310.868,51.5223 314.201,53.3557 317.5,55.5 Z"/></g>
<g><path style="opacity:1" fill="#223d34" d="M 340.5,47.5 C 339.763,49.3046 338.763,50.9713 337.5,52.5C 338.737,53.2807 339.737,54.2807 340.5,55.5C 339.47,55.5545 338.303,55.8878 337,56.5C 335.451,59.3117 334.618,62.3117 334.5,65.5C 333.094,65.0269 332.427,64.0269 332.5,62.5C 332.968,56.1669 335.634,51.1669 340.5,47.5 Z"/></g>
<g><path style="opacity:0.643" fill="#8a938f" d="M 361.5,54.5 C 361.279,57.0673 360.612,59.4006 359.5,61.5C 359.171,58.7718 359.837,56.4385 361.5,54.5 Z"/></g>
<g><path style="opacity:1" fill="#7f6505" d="M 168.5,64.5 C 169.713,61.7746 171.546,59.4412 174,57.5C 173.228,60.4644 171.395,62.7977 168.5,64.5 Z"/></g>
<g><path style="opacity:1" fill="#213f35" d="M 344.5,57.5 C 343.576,62.7548 340.576,66.0882 335.5,67.5C 335.5,66.8333 335.5,66.1667 335.5,65.5C 337.451,64.7177 338.951,63.3844 340,61.5C 340.419,57.1482 341.086,56.8149 342,60.5C 342.377,59.0577 343.21,58.0577 344.5,57.5 Z"/></g>
<g><path style="opacity:1" fill="#70a4a5" d="M 124.5,30.5 C 125.209,29.596 126.209,29.2627 127.5,29.5C 127.611,30.1174 127.944,30.6174 128.5,31C 145.987,31.9834 154.653,41.1501 154.5,58.5C 153.224,63.7181 150.891,68.3848 147.5,72.5C 146.542,72.0472 145.708,71.3805 145,70.5C 142.564,62.7392 139.23,55.4058 135,48.5C 133.261,46.2589 131.094,44.5922 128.5,43.5C 127.478,43.8555 126.811,44.5222 126.5,45.5C 125.662,45.8417 125.328,46.5084 125.5,47.5C 123.559,49.0106 123.059,51.0106 124,53.5C 125.835,59.1807 128.668,64.1807 132.5,68.5C 131.766,69.7079 131.433,71.0413 131.5,72.5C 128.167,72.5 124.833,72.5 121.5,72.5C 120.022,72.762 118.689,72.4287 117.5,71.5C 111.913,64.0398 110.08,55.7065 112,46.5C 114.692,39.8076 119.359,35.141 126,32.5C 126.528,31.184 126.028,30.5173 124.5,30.5 Z"/></g>
<g><path style="opacity:1" fill="#1d3f3b" d="M 126.5,45.5 C 130.33,46.4853 133.163,48.8187 135,52.5C 138.312,59.7989 141.312,67.1322 144,74.5C 139.708,73.3096 135.875,71.3096 132.5,68.5C 128.668,64.1807 125.835,59.1807 124,53.5C 123.059,51.0106 123.559,49.0106 125.5,47.5C 125.328,46.5084 125.662,45.8417 126.5,45.5 Z"/></g>
<g><path style="opacity:1" fill="#638c88" d="M 125.5,47.5 C 129.887,48.7169 132.887,51.5502 134.5,56C 131.333,56.5 129.5,58.3333 129,61.5C 126.294,57.215 125.127,52.5483 125.5,47.5 Z"/></g>
<g><path style="opacity:1" fill="#628682" d="M 132.5,58.5 C 133.822,58.33 134.989,58.6634 136,59.5C 138.04,63.0675 138.873,66.7341 138.5,70.5C 132.356,68.4014 130.356,64.4014 132.5,58.5 Z"/></g>
<g><path style="opacity:1" fill="#757037" d="M 224.5,61.5 C 225.167,61.5 225.833,61.5 226.5,61.5C 216.556,67.1035 206.223,72.2702 195.5,77C 187.353,78.33 179.353,80.1633 171.5,82.5C 171.5,82.1667 171.5,81.8333 171.5,81.5C 189.462,76.2337 207.128,69.567 224.5,61.5 Z"/></g>
<g><path style="opacity:1" fill="#806005" d="M 168.5,64.5 C 166.526,67.4822 164.526,70.4822 162.5,73.5C 161.075,75.0311 160.409,74.6977 160.5,72.5C 162.806,69.5271 165.473,66.8605 168.5,64.5 Z"/></g>
<g><path style="opacity:1" fill="#5e8179" d="M 346.5,54.5 C 346.424,59.5185 344.424,64.0185 340.5,68C 343.923,70.0604 347.256,69.8937 350.5,67.5C 351.107,67.6236 351.44,67.9569 351.5,68.5C 350.766,69.7079 350.433,71.0413 350.5,72.5C 347.545,75.1156 344.545,77.7823 341.5,80.5C 338.751,76.6185 336.751,72.2852 335.5,67.5C 340.576,66.0882 343.576,62.7548 344.5,57.5C 345.167,56.5 345.833,55.5 346.5,54.5 Z"/></g>
<g><path style="opacity:1" fill="#5f8882" d="M 147.5,72.5 C 146.201,75.3953 144.535,78.062 142.5,80.5C 135.163,81.6007 128.497,80.1007 122.5,76C 123.5,75.6667 124.5,75.3333 125.5,75C 124.142,74.0656 122.808,73.2323 121.5,72.5C 124.833,72.5 128.167,72.5 131.5,72.5C 131.433,71.0413 131.766,69.7079 132.5,68.5C 135.875,71.3096 139.708,73.3096 144,74.5C 141.312,67.1322 138.312,59.7989 135,52.5C 133.163,48.8187 130.33,46.4853 126.5,45.5C 126.811,44.5222 127.478,43.8555 128.5,43.5C 131.094,44.5922 133.261,46.2589 135,48.5C 139.23,55.4058 142.564,62.7392 145,70.5C 145.708,71.3805 146.542,72.0472 147.5,72.5 Z"/></g>
<g><path style="opacity:1" fill="#5d867c" d="M 240.5,52.5 C 239.294,55.2978 237.294,57.4645 234.5,59C 218.771,69.6968 201.771,78.0301 183.5,84C 178.178,85.3493 172.845,85.8493 167.5,85.5C 166.811,87.5223 165.478,88.8556 163.5,89.5C 163.833,88.1667 164.167,86.8333 164.5,85.5C 166.438,83.7545 168.771,82.7545 171.5,82.5C 179.353,80.1633 187.353,78.33 195.5,77C 206.223,72.2702 216.556,67.1035 226.5,61.5C 231.13,58.5136 235.797,55.5136 240.5,52.5 Z"/></g>
<g><path style="opacity:1" fill="#5a857b" d="M 295.5,61.5 C 303.481,68.3515 312.147,74.5182 321.5,80C 325.087,83.416 328.42,86.916 331.5,90.5C 329.5,89.5 327.5,88.5 325.5,87.5C 325.167,87.5 324.833,87.5 324.5,87.5C 321.424,84.4475 318.09,81.6142 314.5,79C 294.335,66.0829 274.001,53.4163 253.5,41C 251.934,40.7003 250.601,41.2003 249.5,42.5C 249.712,40.6159 250.712,39.2826 252.5,38.5C 266.616,46.6262 280.949,54.2929 295.5,61.5 Z"/></g>
<g><path style="opacity:1" fill="#7c6c26" d="M 295.5,61.5 C 307.026,68.023 318.026,75.3563 328.5,83.5C 330.942,86.729 333.608,89.729 336.5,92.5C 339.035,96.3548 340.035,100.688 339.5,105.5C 339.488,99.1612 336.821,94.1612 331.5,90.5C 328.42,86.916 325.087,83.416 321.5,80C 312.147,74.5182 303.481,68.3515 295.5,61.5 Z"/></g>
<g><path style="opacity:1" fill="#846604" d="M 171.5,81.5 C 171.5,81.8333 171.5,82.1667 171.5,82.5C 168.771,82.7545 166.438,83.7545 164.5,85.5C 164.265,84.9033 163.765,84.5699 163,84.5C 159.736,85.8186 156.403,86.8186 153,87.5C 153.044,85.7215 153.711,84.0548 155,82.5C 155.674,83.5784 156.674,84.2451 158,84.5C 162.386,83.0186 166.886,82.0186 171.5,81.5 Z"/></g>
<g><path style="opacity:0.133" fill="#dad3c2" d="M 133.5,84.5 C 133.771,86.3797 133.104,87.713 131.5,88.5C 131.66,86.847 132.326,85.5137 133.5,84.5 Z"/></g>
<g><path style="opacity:1" fill="#917c4a" d="M 133.5,84.5 C 134.167,84.5 134.833,84.5 135.5,84.5C 134.171,88.7858 132.838,93.1191 131.5,97.5C 129.762,102.217 129.096,107.217 129.5,112.5C 129.5,112.833 129.5,113.167 129.5,113.5C 127.95,105.104 128.617,96.7702 131.5,88.5C 133.104,87.713 133.771,86.3797 133.5,84.5 Z"/></g>
<g><path style="opacity:1" fill="#7b661f" d="M 164.5,85.5 C 164.167,86.8333 163.833,88.1667 163.5,89.5C 160.905,96.1538 157.572,102.487 153.5,108.5C 152.833,108.833 152.167,109.167 151.5,109.5C 155.852,101.384 160.185,93.3835 164.5,85.5 Z"/></g>
<g><path style="opacity:1" fill="#d8b737" d="M 141.5,82.5 C 139.233,89.4675 137.066,96.4675 135,103.5C 134.667,110.5 134.333,117.5 134,124.5C 133.802,122.618 133.302,120.952 132.5,119.5C 131.766,118.292 131.433,116.959 131.5,115.5C 131.5,109.5 131.5,103.5 131.5,97.5C 132.838,93.1191 134.171,88.7858 135.5,84.5C 136.99,82.7202 138.99,82.0535 141.5,82.5 Z"/></g>
<g><path style="opacity:1" fill="#937a18" d="M 131.5,97.5 C 131.5,103.5 131.5,109.5 131.5,115.5C 130.833,114.5 130.167,113.5 129.5,112.5C 129.096,107.217 129.762,102.217 131.5,97.5 Z"/></g>
<g><path style="opacity:1" fill="#d9b730" d="M 247.5,34.5 C 248.167,35.1667 248.833,35.8333 249.5,36.5C 249.313,38.5643 248.813,40.5643 248,42.5C 240.847,49.835 233.013,56.1683 224.5,61.5C 207.128,69.567 189.462,76.2337 171.5,81.5C 166.886,82.0186 162.386,83.0186 158,84.5C 156.674,84.2451 155.674,83.5784 155,82.5C 153.711,84.0548 153.044,85.7215 153,87.5C 156.403,86.8186 159.736,85.8186 163,84.5C 163.765,84.5699 164.265,84.9033 164.5,85.5C 160.185,93.3835 155.852,101.384 151.5,109.5C 147.248,115.599 142.748,121.599 138,127.5C 137.667,126.833 137.333,126.167 137,125.5C 135.709,110.6 137.876,96.2667 143.5,82.5C 146.155,78.5335 148.821,74.5335 151.5,70.5C 152.043,70.56 152.376,70.8933 152.5,71.5C 149.081,79.3478 145.914,87.3478 143,95.5C 142.171,100.864 142.337,106.198 143.5,111.5C 150.736,105.379 155.736,97.7123 158.5,88.5C 155.951,88.3874 153.618,89.0541 151.5,90.5C 151.642,88.3063 151.309,85.9729 150.5,83.5C 151.675,83.719 152.675,83.3857 153.5,82.5C 155.184,79.3876 155.85,76.0543 155.5,72.5C 157.167,72.5 158.833,72.5 160.5,72.5C 160.409,74.6977 161.075,75.0311 162.5,73.5C 169.576,70.8223 176.91,67.6557 184.5,64C 188.854,61.3291 193.187,58.9958 197.5,57C 196.167,58.3333 194.833,59.6667 193.5,61C 185.342,66.2797 176.675,70.613 167.5,74C 170.833,74.6667 174.167,74.6667 177.5,74C 196.411,69.7127 214.077,62.3794 230.5,52C 237.069,46.9329 242.735,41.0996 247.5,34.5 Z"/></g>
<g><path style="opacity:1" fill="#eace57" d="M 320.5,51.5 C 340.196,73.2954 348.196,98.9621 344.5,128.5C 343.852,130.086 343.352,131.753 343,133.5C 342.845,120.763 341.845,108.097 340,95.5C 337.423,79.3399 329.923,66.0066 317.5,55.5C 319.394,56.0476 321.06,57.0476 322.5,58.5C 322.833,58 323.167,57.5 323.5,57C 322.259,55.2691 321.259,53.4358 320.5,51.5 Z"/></g>
<g><path style="opacity:1" fill="#85670b" d="M 141.5,82.5 C 142.167,82.5 142.833,82.5 143.5,82.5C 137.876,96.2667 135.709,110.6 137,125.5C 137.333,126.167 137.667,126.833 138,127.5C 142.748,121.599 147.248,115.599 151.5,109.5C 149.904,113.745 147.904,117.745 145.5,121.5C 144.833,127.167 144.167,132.833 143.5,138.5C 143.826,134.116 143.492,129.783 142.5,125.5C 141.702,125.957 141.369,126.624 141.5,127.5C 138.473,129.86 135.806,132.527 133.5,135.5C 133.784,133.585 133.451,131.919 132.5,130.5C 132.706,127.505 132.04,124.838 130.5,122.5C 131.551,121.778 132.218,120.778 132.5,119.5C 133.302,120.952 133.802,122.618 134,124.5C 134.333,117.5 134.667,110.5 135,103.5C 137.066,96.4675 139.233,89.4675 141.5,82.5 Z"/></g>
<g><path style="opacity:1" fill="#6ea4a6" d="M 324.5,87.5 C 310.824,95.5667 296.491,102.4 281.5,108C 279.559,108.743 277.726,108.576 276,107.5C 275.845,105.144 275.845,102.811 276,100.5C 271.477,107.009 272.977,110.843 280.5,112C 278.503,114.492 277.503,117.325 277.5,120.5C 276.522,123.803 275.855,127.303 275.5,131C 276.204,134.495 276.871,137.661 277.5,140.5C 268.483,136.966 260.149,137.966 252.5,143.5C 241.145,147.522 233.478,155.189 229.5,166.5C 225.752,181.419 231.418,187.085 246.5,183.5C 245.918,192.418 250.085,197.084 259,197.5C 261.856,197.129 264.689,196.629 267.5,196C 271.531,195.469 272.197,193.969 269.5,191.5C 271.582,191.528 273.416,190.861 275,189.5C 276.036,186.029 276.869,182.529 277.5,179C 292.423,180.737 297.589,174.237 293,159.5C 291.637,157.316 290.137,155.316 288.5,153.5C 288.735,152.903 289.235,152.57 290,152.5C 300.152,158.585 310.319,158.918 320.5,153.5C 336.154,141.763 340.654,126.429 334,107.5C 330.833,101 326,96.1667 319.5,93C 321.996,91.669 323.996,89.8356 325.5,87.5C 327.5,88.5 329.5,89.5 331.5,90.5C 336.821,94.1612 339.488,99.1612 339.5,105.5C 340.265,108.096 340.599,110.763 340.5,113.5C 340.5,126.5 340.5,139.5 340.5,152.5C 340.5,153.833 340.5,155.167 340.5,156.5C 338.864,160.21 338.198,164.21 338.5,168.5C 337.061,172.01 335.728,175.677 334.5,179.5C 334.808,180.308 335.308,180.975 336,181.5C 336.232,180.263 336.732,179.263 337.5,178.5C 337.88,180.698 337.213,182.365 335.5,183.5C 315.79,220.568 291.29,255.235 262,287.5C 251.299,275.968 240.799,264.302 230.5,252.5C 215.839,236.339 200.672,220.672 185,205.5C 165.896,183.218 154.73,157.384 151.5,128C 151.622,122.012 152.622,116.178 154.5,110.5C 154.137,109.817 153.804,109.15 153.5,108.5C 157.572,102.487 160.905,96.1538 163.5,89.5C 165.478,88.8556 166.811,87.5223 167.5,85.5C 172.845,85.8493 178.178,85.3493 183.5,84C 201.771,78.0301 218.771,69.6968 234.5,59C 237.294,57.4645 239.294,55.2978 240.5,52.5C 243.5,49.1667 246.5,45.8333 249.5,42.5C 250.601,41.2003 251.934,40.7003 253.5,41C 274.001,53.4163 294.335,66.0829 314.5,79C 318.09,81.6142 321.424,84.4475 324.5,87.5 Z"/></g>
<g><path style="opacity:1" fill="#2f4238" d="M 324.5,87.5 C 324.833,87.5 325.167,87.5 325.5,87.5C 323.996,89.8356 321.996,91.669 319.5,93C 326,96.1667 330.833,101 334,107.5C 340.654,126.429 336.154,141.763 320.5,153.5C 303.202,158.153 289.702,153.153 280,138.5C 277.849,132.7 277.016,126.7 277.5,120.5C 277.503,117.325 278.503,114.492 280.5,112C 272.977,110.843 271.477,107.009 276,100.5C 275.845,102.811 275.845,105.144 276,107.5C 277.726,108.576 279.559,108.743 281.5,108C 296.491,102.4 310.824,95.5667 324.5,87.5 Z"/></g>
<g><path style="opacity:1" fill="#fbf8e0" d="M 318.5,95.5 C 326.393,98.5758 331.559,104.242 334,112.5C 337.076,124.409 334.91,135.076 327.5,144.5C 326.883,144.389 326.383,144.056 326,143.5C 321.432,147.968 315.932,149.968 309.5,149.5C 289.644,147.635 279.977,136.635 280.5,116.5C 281.117,116.611 281.617,116.944 282,117.5C 291.733,109.797 302.566,103.963 314.5,100C 316.635,99.1237 317.969,97.6237 318.5,95.5 Z"/></g>
<g><path style="opacity:1" fill="#282c16" d="M 295.5,111.5 C 306.249,110.749 311.082,115.749 310,126.5C 308.109,134.861 302.942,138.361 294.5,137C 288.03,132.874 285.863,127.041 288,119.5C 289.84,116.103 292.34,113.436 295.5,111.5 Z"/></g>
<g><path style="opacity:1" fill="#e8e8da" d="M 299.5,116.5 C 304.663,116.107 306.33,118.273 304.5,123C 300.872,124.316 298.539,123.149 297.5,119.5C 298.193,118.482 298.859,117.482 299.5,116.5 Z"/></g>
<g><path style="opacity:1" fill="#ddd5af" d="M 318.5,95.5 C 317.969,97.6237 316.635,99.1237 314.5,100C 302.566,103.963 291.733,109.797 282,117.5C 281.617,116.944 281.117,116.611 280.5,116.5C 281.536,112.591 283.87,109.758 287.5,108C 297.104,104.197 306.438,99.8639 315.5,95C 316.749,94.2599 317.749,94.4265 318.5,95.5 Z"/></g>
<g><path style="opacity:1" fill="#314337" d="M 182.5,86.5 C 202.089,94.0369 221.589,102.037 241,110.5C 243.761,109.523 245.094,107.523 245,104.5C 247.164,108.513 246.164,111.513 242,113.5C 240.527,113.097 239.194,112.43 238,111.5C 241.872,123.302 240.538,134.635 234,145.5C 228.672,152.166 221.839,156.333 213.5,158C 192.26,161.801 177.426,153.968 169,134.5C 164.685,114.627 171.852,100.794 190.5,93C 186.769,91.9894 184.102,89.8228 182.5,86.5 Z"/></g>
<g><path style="opacity:1" fill="#606531" d="M 340.5,113.5 C 341.167,122.167 341.833,130.833 342.5,139.5C 342.5,143.5 342.5,147.5 342.5,151.5C 341.833,151.833 341.167,152.167 340.5,152.5C 340.5,139.5 340.5,126.5 340.5,113.5 Z"/></g>
<g><path style="opacity:1" fill="#f2d240" d="M 130.5,122.5 C 132.04,124.838 132.706,127.505 132.5,130.5C 131.076,135.308 129.91,140.308 129,145.5C 127.602,144.949 126.268,144.616 125,144.5C 124.501,140.514 124.334,136.514 124.5,132.5C 125.998,128.832 127.998,125.498 130.5,122.5 Z"/></g>
<g><path style="opacity:1" fill="#fbf8e1" d="M 236.5,114.5 C 238.622,120.053 238.955,125.719 237.5,131.5C 234.132,135.179 230.965,139.179 228,143.5C 212.684,155.804 197.684,155.471 183,142.5C 173.895,130.986 173.228,118.986 181,106.5C 183.953,102.206 187.953,99.5393 193,98.5C 207.124,103.485 220.957,109.152 234.5,115.5C 235.183,115.137 235.85,114.804 236.5,114.5 Z"/></g>
<g><path style="opacity:1" fill="#252912" d="M 213.5,111.5 C 228.459,113.418 232.293,121.084 225,134.5C 219.333,138.5 213.667,138.5 208,134.5C 203.216,125.023 205.05,117.356 213.5,111.5 Z"/></g>
<g><path style="opacity:1" fill="#ecebdd" d="M 219.5,117.5 C 224.328,117.385 225.661,119.552 223.5,124C 217.738,124.418 216.404,122.251 219.5,117.5 Z"/></g>
<g><path style="opacity:1" fill="#d7d2af" d="M 280.5,116.5 C 279.977,136.635 289.644,147.635 309.5,149.5C 315.932,149.968 321.432,147.968 326,143.5C 326.383,144.056 326.883,144.389 327.5,144.5C 321.022,152.389 312.689,155.223 302.5,153C 284.966,146.739 277.633,134.573 280.5,116.5 Z"/></g>
<g><path style="opacity:1" fill="#f2d140" d="M 141.5,127.5 C 140.764,136.874 137.931,145.54 133,153.5C 131.019,147.448 131.186,141.448 133.5,135.5C 135.806,132.527 138.473,129.86 141.5,127.5 Z"/></g>
<g><path style="opacity:1" fill="#e9ca3f" d="M 351.5,133.5 C 351.025,138.066 351.025,142.566 351.5,147C 350.649,150.391 349.316,153.557 347.5,156.5C 345.451,155.118 343.785,153.452 342.5,151.5C 342.5,147.5 342.5,143.5 342.5,139.5C 345.373,135.286 346.706,130.619 346.5,125.5C 346.369,124.761 346.536,124.094 347,123.5C 348.984,126.619 350.484,129.952 351.5,133.5 Z"/></g>
<g><path style="opacity:1" fill="#e0d7ac" d="M 236.5,114.5 C 235.85,114.804 235.183,115.137 234.5,115.5C 220.957,109.152 207.124,103.485 193,98.5C 187.953,99.5393 183.953,102.206 181,106.5C 173.228,118.986 173.895,130.986 183,142.5C 197.684,155.471 212.684,155.804 228,143.5C 230.965,139.179 234.132,135.179 237.5,131.5C 230.807,151.693 216.807,159.86 195.5,156C 179.303,151.47 170.969,140.803 170.5,124C 171.134,108.886 178.634,99.0531 193,94.5C 206.933,98.4787 220.433,103.645 233.5,110C 234.883,111.271 235.883,112.771 236.5,114.5 Z"/></g>
<g><path style="opacity:1" fill="#857439" d="M 145.5,121.5 C 145.912,130.296 145.245,138.963 143.5,147.5C 142.751,148.531 142.085,149.698 141.5,151C 142.38,152.356 142.714,153.856 142.5,155.5C 141.139,151.714 139.805,152.047 138.5,156.5C 139.61,161.111 139.777,165.778 139,170.5C 138.77,174.29 137.437,177.624 135,180.5C 134.823,184.356 134.323,188.023 133.5,191.5C 133.693,187.434 133.36,183.434 132.5,179.5C 134.738,176.57 136.071,173.237 136.5,169.5C 137.162,167.696 137.495,165.696 137.5,163.5C 137.357,160.887 136.69,158.553 135.5,156.5C 139.511,151.146 142.178,145.146 143.5,138.5C 144.167,132.833 144.833,127.167 145.5,121.5 Z"/></g>
<g><path style="opacity:1" fill="#dab930" d="M 143.5,138.5 C 142.178,145.146 139.511,151.146 135.5,156.5C 133.629,156.859 132.129,157.859 131,159.5C 129.637,157.316 128.137,155.316 126.5,153.5C 123.445,146.642 122.778,139.642 124.5,132.5C 124.334,136.514 124.501,140.514 125,144.5C 126.268,144.616 127.602,144.949 129,145.5C 129.91,140.308 131.076,135.308 132.5,130.5C 133.451,131.919 133.784,133.585 133.5,135.5C 131.186,141.448 131.019,147.448 133,153.5C 137.931,145.54 140.764,136.874 141.5,127.5C 141.369,126.624 141.702,125.957 142.5,125.5C 143.492,129.783 143.826,134.116 143.5,138.5 Z"/></g>
<g><path style="opacity:1" fill="#907311" d="M 351.5,133.5 C 352.064,138.819 353.064,144.153 354.5,149.5C 352.326,152.63 350.326,155.963 348.5,159.5C 346.265,158.772 344.432,157.439 343,155.5C 342.015,157.175 341.181,158.842 340.5,160.5C 340.5,159.167 340.5,157.833 340.5,156.5C 340.5,155.167 340.5,153.833 340.5,152.5C 341.167,152.167 341.833,151.833 342.5,151.5C 343.785,153.452 345.451,155.118 347.5,156.5C 349.316,153.557 350.649,150.391 351.5,147C 351.025,142.566 351.025,138.066 351.5,133.5 Z"/></g>
<g><path style="opacity:1" fill="#192a19" d="M 277.5,140.5 C 279.922,144.344 282.589,148.01 285.5,151.5C 283.983,151.489 282.816,150.823 282,149.5C 280.629,152.266 278.796,154.599 276.5,156.5C 271.329,158.349 265.996,158.849 260.5,158C 259.142,157.066 257.808,156.232 256.5,155.5C 251.195,153.576 249.861,150.243 252.5,145.5C 252.5,144.833 252.5,144.167 252.5,143.5C 260.149,137.966 268.483,136.966 277.5,140.5 Z"/></g>
<g><path style="opacity:1" fill="#282d11" d="M 274.5,142.5 C 282.005,145.768 282.338,149.934 275.5,155C 272.581,156.14 269.581,156.973 266.5,157.5C 263.198,156.62 259.865,155.954 256.5,155.5C 256.414,154.504 256.748,153.671 257.5,153C 256.207,152.51 254.873,152.343 253.5,152.5C 253.336,149.813 253.503,147.146 254,144.5C 255.356,143.62 256.856,143.286 258.5,143.5C 258.297,145.39 258.963,146.89 260.5,148C 265.686,150.226 270.686,149.893 275.5,147C 276.743,145.184 276.41,143.684 274.5,142.5 Z"/></g>
<g><path style="opacity:1" fill="#5e6042" d="M 274.5,142.5 C 276.41,143.684 276.743,145.184 275.5,147C 270.686,149.893 265.686,150.226 260.5,148C 258.963,146.89 258.297,145.39 258.5,143.5C 263.44,139.92 268.774,139.587 274.5,142.5 Z"/></g>
<g><path style="opacity:1" fill="#5c8680" d="M 277.5,120.5 C 277.016,126.7 277.849,132.7 280,138.5C 289.702,153.153 303.202,158.153 320.5,153.5C 310.319,158.918 300.152,158.585 290,152.5C 289.235,152.57 288.735,152.903 288.5,153.5C 288.167,153.5 287.833,153.5 287.5,153.5C 286.5,153.167 285.833,152.5 285.5,151.5C 282.589,148.01 279.922,144.344 277.5,140.5C 276.871,137.661 276.204,134.495 275.5,131C 275.855,127.303 276.522,123.803 277.5,120.5 Z"/></g>
<g><path style="opacity:1" fill="#5a847f" d="M 252.5,145.5 C 249.861,150.243 251.195,153.576 256.5,155.5C 257.808,156.232 259.142,157.066 260.5,158C 265.996,158.849 271.329,158.349 276.5,156.5C 274.879,158.117 272.879,159.284 270.5,160C 264.811,161.742 259.144,161.742 253.5,160C 251.714,159.215 250.214,158.049 249,156.5C 248.234,153.226 247.734,150.226 247.5,147.5C 248.93,146.463 250.597,145.796 252.5,145.5 Z"/></g>
<g><path style="opacity:1" fill="#6ea2a5" d="M 247.5,147.5 C 247.734,150.226 248.234,153.226 249,156.5C 250.214,158.049 251.714,159.215 253.5,160C 259.144,161.742 264.811,161.742 270.5,160C 272.879,159.284 274.879,158.117 276.5,156.5C 278.796,154.599 280.629,152.266 282,149.5C 282.816,150.823 283.983,151.489 285.5,151.5C 285.833,152.5 286.5,153.167 287.5,153.5C 290.459,157.698 292.459,162.365 293.5,167.5C 291.92,175.251 287.253,178.417 279.5,177C 274.748,174.728 269.748,173.228 264.5,172.5C 256.691,174.639 248.858,176.972 241,179.5C 233.822,178.163 230.822,173.83 232,166.5C 234.793,158.209 239.96,151.875 247.5,147.5 Z"/></g>
<g><path style="opacity:1" fill="#f1d13e" d="M 354.5,149.5 C 357.346,153.701 359.012,158.368 359.5,163.5C 359.5,166.5 359.5,169.5 359.5,172.5C 357.046,172.321 354.879,172.987 353,174.5C 347.165,171.158 344.165,166.158 344,159.5C 345.333,160.833 346.667,162.167 348,163.5C 348.49,162.207 348.657,160.873 348.5,159.5C 350.326,155.963 352.326,152.63 354.5,149.5 Z"/></g>
<g><path style="opacity:1" fill="#90710b" d="M 125.5,153.5 C 125.833,153.5 126.167,153.5 126.5,153.5C 128.137,155.316 129.637,157.316 131,159.5C 132.129,157.859 133.629,156.859 135.5,156.5C 136.69,158.553 137.357,160.887 137.5,163.5C 137.495,165.696 137.162,167.696 136.5,169.5C 136.665,165.818 136.499,162.152 136,158.5C 133.667,160.167 131.333,161.833 129,163.5C 127.823,160.101 126.656,156.767 125.5,153.5 Z"/></g>
<g><path style="opacity:1" fill="#5c867f" d="M 153.5,108.5 C 153.804,109.15 154.137,109.817 154.5,110.5C 152.622,116.178 151.622,122.012 151.5,128C 154.73,157.384 165.896,183.218 185,205.5C 200.672,220.672 215.839,236.339 230.5,252.5C 208.295,230.8 184.961,210.3 160.5,191C 156.286,186.454 152.453,181.621 149,176.5C 146.355,166.934 144.522,157.268 143.5,147.5C 145.245,138.963 145.912,130.296 145.5,121.5C 147.904,117.745 149.904,113.745 151.5,109.5C 152.167,109.167 152.833,108.833 153.5,108.5 Z"/></g>
<g><path style="opacity:1" fill="#46522a" d="M 340.5,156.5 C 340.5,157.833 340.5,159.167 340.5,160.5C 340.5,161.167 340.5,161.833 340.5,162.5C 339.539,164.265 339.205,166.265 339.5,168.5C 339.167,168.5 338.833,168.5 338.5,168.5C 338.198,164.21 338.864,160.21 340.5,156.5 Z"/></g>
<g><path style="opacity:1" fill="#daba35" d="M 348.5,159.5 C 348.657,160.873 348.49,162.207 348,163.5C 346.667,162.167 345.333,160.833 344,159.5C 344.165,166.158 347.165,171.158 353,174.5C 354.879,172.987 357.046,172.321 359.5,172.5C 358.287,175.637 356.787,178.637 355,181.5C 352.05,179.613 349.216,177.613 346.5,175.5C 343.153,171.805 341.153,167.472 340.5,162.5C 340.5,161.833 340.5,161.167 340.5,160.5C 341.181,158.842 342.015,157.175 343,155.5C 344.432,157.439 346.265,158.772 348.5,159.5 Z"/></g>
<g><path style="opacity:1" fill="#e3c235" d="M 125.5,153.5 C 126.656,156.767 127.823,160.101 129,163.5C 131.333,161.833 133.667,160.167 136,158.5C 136.499,162.152 136.665,165.818 136.5,169.5C 136.071,173.237 134.738,176.57 132.5,179.5C 130.135,181.86 127.468,183.86 124.5,185.5C 115.542,174.84 115.209,163.84 123.5,152.5C 124.183,152.863 124.85,153.196 125.5,153.5 Z"/></g>
<g><path style="opacity:0.067" fill="#bfc4c8" d="M 339.5,170.5 C 339.829,173.228 339.163,175.562 337.5,177.5C 337.721,174.933 338.388,172.599 339.5,170.5 Z"/></g>
<g><path style="opacity:1" fill="#2c443c" d="M 252.5,143.5 C 252.5,144.167 252.5,144.833 252.5,145.5C 250.597,145.796 248.93,146.463 247.5,147.5C 239.96,151.875 234.793,158.209 232,166.5C 230.822,173.83 233.822,178.163 241,179.5C 248.858,176.972 256.691,174.639 264.5,172.5C 269.748,173.228 274.748,174.728 279.5,177C 287.253,178.417 291.92,175.251 293.5,167.5C 292.459,162.365 290.459,157.698 287.5,153.5C 287.833,153.5 288.167,153.5 288.5,153.5C 290.137,155.316 291.637,157.316 293,159.5C 297.589,174.237 292.423,180.737 277.5,179C 276.869,182.529 276.036,186.029 275,189.5C 273.416,190.861 271.582,191.528 269.5,191.5C 257.459,195.901 250.292,191.901 248,179.5C 235.912,183.701 229.745,179.367 229.5,166.5C 233.478,155.189 241.145,147.522 252.5,143.5 Z"/></g>
<g><path style="opacity:1" fill="#253b3a" d="M 338.5,168.5 C 338.833,168.5 339.167,168.5 339.5,168.5C 339.5,169.167 339.5,169.833 339.5,170.5C 338.388,172.599 337.721,174.933 337.5,177.5C 337.5,177.833 337.5,178.167 337.5,178.5C 336.732,179.263 336.232,180.263 336,181.5C 335.308,180.975 334.808,180.308 334.5,179.5C 335.728,175.677 337.061,172.01 338.5,168.5 Z"/></g>
<g><path style="opacity:1" fill="#826a2e" d="M 340.5,162.5 C 341.153,167.472 343.153,171.805 346.5,175.5C 346.5,176.5 346.5,177.5 346.5,178.5C 345.829,187.853 349.995,193.519 359,195.5C 362.082,195.252 363.582,193.585 363.5,190.5C 364.898,189.223 365.564,187.557 365.5,185.5C 364.55,181.646 363.217,177.979 361.5,174.5C 361.5,173.833 361.5,173.167 361.5,172.5C 364.176,174.026 366.009,176.36 367,179.5C 367.173,183.541 367.673,187.541 368.5,191.5C 380.894,200.939 386.061,213.272 384,228.5C 383.667,228.833 383.333,229.167 383,229.5C 382.722,228.584 382.222,227.918 381.5,227.5C 381.5,227.167 381.5,226.833 381.5,226.5C 382.693,226.03 383.36,225.03 383.5,223.5C 383.48,222.274 383.147,221.274 382.5,220.5C 382.196,217.478 381.696,214.478 381,211.5C 376.809,204.629 371.809,198.296 366,192.5C 364.945,195.056 363.112,196.723 360.5,197.5C 358.833,197.5 357.167,197.5 355.5,197.5C 355.279,200.067 354.612,202.401 353.5,204.5C 353.737,203.209 353.404,202.209 352.5,201.5C 352.33,200.178 352.663,199.011 353.5,198C 346.286,192.713 343.119,185.546 344,176.5C 342.637,174.316 341.137,172.316 339.5,170.5C 339.5,169.833 339.5,169.167 339.5,168.5C 339.205,166.265 339.539,164.265 340.5,162.5 Z"/></g>
<g><path style="opacity:1" fill="#8a6b07" d="M 359.5,163.5 C 360.167,166.5 360.833,169.5 361.5,172.5C 361.5,173.167 361.5,173.833 361.5,174.5C 360.033,177.521 358.367,180.521 356.5,183.5C 355.675,184.386 354.675,184.719 353.5,184.5C 351.192,182.529 348.858,180.529 346.5,178.5C 346.5,177.5 346.5,176.5 346.5,175.5C 349.216,177.613 352.05,179.613 355,181.5C 356.787,178.637 358.287,175.637 359.5,172.5C 359.5,169.5 359.5,166.5 359.5,163.5 Z"/></g>
<g><path style="opacity:1" fill="#5a8680" d="M 229.5,166.5 C 229.745,179.367 235.912,183.701 248,179.5C 250.292,191.901 257.459,195.901 269.5,191.5C 272.197,193.969 271.531,195.469 267.5,196C 264.689,196.629 261.856,197.129 259,197.5C 250.085,197.084 245.918,192.418 246.5,183.5C 231.418,187.085 225.752,181.419 229.5,166.5 Z"/></g>
<g><path style="opacity:1" fill="#f2eed5" d="M 263.5,173.5 C 265.28,177.727 266.114,182.394 266,187.5C 266.583,183.168 267.083,178.835 267.5,174.5C 270.004,175.639 272.67,176.306 275.5,176.5C 275.507,180.995 274.507,185.162 272.5,189C 266.569,190.471 260.569,190.804 254.5,190C 251.897,186.961 250.231,183.461 249.5,179.5C 254.026,176.897 258.692,174.897 263.5,173.5 Z"/></g>
<g><path style="opacity:1" fill="#dbbb33" d="M 346.5,178.5 C 348.858,180.529 351.192,182.529 353.5,184.5C 352.609,189.151 354.775,191.818 360,192.5C 361.303,192.022 362.469,191.355 363.5,190.5C 363.582,193.585 362.082,195.252 359,195.5C 349.995,193.519 345.829,187.853 346.5,178.5 Z"/></g>
<g><path style="opacity:1" fill="#f1d141" d="M 361.5,174.5 C 363.217,177.979 364.55,181.646 365.5,185.5C 365.564,187.557 364.898,189.223 363.5,190.5C 362.469,191.355 361.303,192.022 360,192.5C 354.775,191.818 352.609,189.151 353.5,184.5C 354.675,184.719 355.675,184.386 356.5,183.5C 358.367,180.521 360.033,177.521 361.5,174.5 Z"/></g>
<g><path style="opacity:1" fill="#886e2f" d="M 129.5,112.5 C 130.167,113.5 130.833,114.5 131.5,115.5C 131.433,116.959 131.766,118.292 132.5,119.5C 132.218,120.778 131.551,121.778 130.5,122.5C 127.998,125.498 125.998,128.832 124.5,132.5C 122.778,139.642 123.445,146.642 126.5,153.5C 126.167,153.5 125.833,153.5 125.5,153.5C 124.85,153.196 124.183,152.863 123.5,152.5C 115.209,163.84 115.542,174.84 124.5,185.5C 127.468,183.86 130.135,181.86 132.5,179.5C 133.36,183.434 133.693,187.434 133.5,191.5C 132.086,194.747 130.086,197.58 127.5,200C 129.831,212.328 128.498,224.161 123.5,235.5C 122.833,235.5 122.5,235.833 122.5,236.5C 121.609,237.11 120.609,237.443 119.5,237.5C 118.662,237.158 118.328,236.492 118.5,235.5C 118.662,233.473 118.495,231.473 118,229.5C 113.917,234.407 109.75,239.073 105.5,243.5C 104.026,242.564 103.026,241.23 102.5,239.5C 111.481,235.34 116.981,228.34 119,218.5C 119.481,222.531 120.147,226.531 121,230.5C 121.667,231.833 122.333,231.833 123,230.5C 126.378,221.081 127.044,211.414 125,201.5C 121.917,201.553 118.751,201.22 115.5,200.5C 114.396,198.611 113.063,196.945 111.5,195.5C 103.531,203.29 97.8641,212.457 94.5,223C 94.6667,223.833 94.8333,224.667 95,225.5C 96.7632,222.98 98.7632,220.647 101,218.5C 101.315,223.838 101.148,229.172 100.5,234.5C 99.8333,232.167 99.1667,229.833 98.5,227.5C 98.1667,226.167 97.8333,226.167 97.5,227.5C 96.8333,227.5 96.5,227.833 96.5,228.5C 94.0615,226.973 92.0615,224.973 90.5,222.5C 94.442,214.632 98.942,206.966 104,199.5C 106.009,197.457 108.009,195.457 110,193.5C 109.432,186.503 111.099,180.17 115,174.5C 114.241,164.905 116.741,156.405 122.5,149C 119.094,138.22 121.261,128.72 129,120.5C 129.497,118.19 129.663,115.857 129.5,113.5C 129.5,113.167 129.5,112.833 129.5,112.5 Z"/></g>
<g><path style="opacity:0.996" fill="#5c6f6a" d="M 425.5,197.5 C 424.604,196.494 423.938,196.494 423.5,197.5C 421.824,195.166 419.491,194.166 416.5,194.5C 416.158,193.662 415.492,193.328 414.5,193.5C 419.665,190.103 423.331,191.437 425.5,197.5 Z"/></g>
<g><path style="opacity:1" fill="#dcbb33" d="M 116.5,177.5 C 118.338,180.654 120.338,183.82 122.5,187C 125.778,187.117 128.611,185.95 131,183.5C 132.113,193.67 127.613,198.837 117.5,199C 112.554,192.08 112.221,184.914 116.5,177.5 Z"/></g>
<g><path style="opacity:0.133" fill="#d4d9d8" d="M 404.5,197.5 C 404.573,199.027 403.906,200.027 402.5,200.5C 402.427,198.973 403.094,197.973 404.5,197.5 Z"/></g>
<g><path style="opacity:1" fill="#e2d8aa" d="M 149.5,180.5 C 154.847,187.177 160.514,193.51 166.5,199.5C 165.761,199.369 165.094,199.536 164.5,200C 162.167,202.667 159.833,205.333 157.5,208C 161.108,210.618 161.108,211.451 157.5,210.5C 156.081,211.005 155.415,212.005 155.5,213.5C 152.87,211.372 150.37,209.039 148,206.5C 148.545,200.87 148.379,195.204 147.5,189.5C 147.707,187.396 147.874,185.063 148,182.5C 148.278,181.584 148.778,180.918 149.5,180.5 Z"/></g>
<g><path style="opacity:1" fill="#3e544d" d="M 404.5,197.5 C 405.552,197.351 406.552,197.517 407.5,198C 401.171,205.518 396.671,213.684 394,222.5C 393.311,225.408 392.145,228.075 390.5,230.5C 389.614,229.675 389.281,228.675 389.5,227.5C 392.126,217.594 396.459,208.594 402.5,200.5C 403.906,200.027 404.573,199.027 404.5,197.5 Z"/></g>
<g><path style="opacity:1" fill="#dab832" d="M 102.5,239.5 C 102.107,237.716 101.441,236.05 100.5,234.5C 101.148,229.172 101.315,223.838 101,218.5C 98.7632,220.647 96.7632,222.98 95,225.5C 94.8333,224.667 94.6667,223.833 94.5,223C 97.8641,212.457 103.531,203.29 111.5,195.5C 113.063,196.945 114.396,198.611 115.5,200.5C 118.751,201.22 121.917,201.553 125,201.5C 127.044,211.414 126.378,221.081 123,230.5C 122.333,231.833 121.667,231.833 121,230.5C 120.147,226.531 119.481,222.531 119,218.5C 116.981,228.34 111.481,235.34 102.5,239.5 Z"/></g>
<g><path style="opacity:1" fill="#f0cf3e" d="M 382.5,220.5 C 382.631,221.239 382.464,221.906 382,222.5C 380.333,219.5 378.667,216.5 377,213.5C 376.506,215.134 376.34,216.801 376.5,218.5C 377.153,228.455 374.319,230.121 368,223.5C 363.895,217.123 360.729,210.289 358.5,203C 358.554,201.267 359.22,199.434 360.5,197.5C 363.112,196.723 364.945,195.056 366,192.5C 371.809,198.296 376.809,204.629 381,211.5C 381.696,214.478 382.196,217.478 382.5,220.5 Z"/></g>
<g><path style="opacity:1" fill="#f2d13c" d="M 113.5,201.5 C 123.369,202.999 126.202,208.332 122,217.5C 121.385,215.884 120.385,214.551 119,213.5C 117.201,217.883 115.201,222.217 113,226.5C 111.636,229.363 109.47,231.363 106.5,232.5C 104.495,231.663 103.495,230.163 103.5,228C 104.449,221.372 105.949,214.872 108,208.5C 109.666,206.004 111.5,203.671 113.5,201.5 Z"/></g>
<g><path style="opacity:1" fill="#394c44" d="M 143.5,147.5 C 144.522,157.268 146.355,166.934 149,176.5C 152.453,181.621 156.286,186.454 160.5,191C 184.961,210.3 208.295,230.8 230.5,252.5C 240.799,264.302 251.299,275.968 262,287.5C 291.29,255.235 315.79,220.568 335.5,183.5C 335.306,186.33 334.639,188.996 333.5,191.5C 332.5,191.833 331.833,192.5 331.5,193.5C 324.181,209.007 315.347,223.673 305,237.5C 293.383,253.614 281.216,269.281 268.5,284.5C 265.788,286.885 263.122,289.218 260.5,291.5C 260.5,291.167 260.5,290.833 260.5,290.5C 260.378,287.708 259.044,285.708 256.5,284.5C 229.653,252.648 199.653,224.314 166.5,199.5C 160.514,193.51 154.847,187.177 149.5,180.5C 148.492,178.456 147.492,176.456 146.5,174.5C 144.275,168.373 142.942,162.04 142.5,155.5C 142.714,153.856 142.38,152.356 141.5,151C 142.085,149.698 142.751,148.531 143.5,147.5 Z"/></g>
<g><path style="opacity:1" fill="#375151" d="M 425.5,197.5 C 428.389,199.458 430.555,202.125 432,205.5C 432.966,210.39 432.466,215.057 430.5,219.5C 429.778,219.918 429.278,220.584 429,221.5C 428.833,221 428.667,220.5 428.5,220C 429.592,214.874 429.759,209.707 429,204.5C 428.333,203.833 427.667,203.167 427,202.5C 424.291,211 421.124,219.333 417.5,227.5C 417.167,227.167 416.833,226.833 416.5,226.5C 419.299,219.988 421.799,213.321 424,206.5C 424.736,203.408 424.569,200.408 423.5,197.5C 423.938,196.494 424.604,196.494 425.5,197.5 Z"/></g>
<g><path style="opacity:1" fill="#70a2a3" d="M 416.5,194.5 C 419.491,194.166 421.824,195.166 423.5,197.5C 424.569,200.408 424.736,203.408 424,206.5C 421.799,213.321 419.299,219.988 416.5,226.5C 416.833,226.833 417.167,227.167 417.5,227.5C 421.124,219.333 424.291,211 427,202.5C 427.667,203.167 428.333,203.833 429,204.5C 429.759,209.707 429.592,214.874 428.5,220C 428.667,220.5 428.833,221 429,221.5C 429.278,220.584 429.778,219.918 430.5,219.5C 430.58,222.781 429.913,225.781 428.5,228.5C 428.587,225.402 428.087,225.068 427,227.5C 426.908,237.249 425.074,246.582 421.5,255.5C 417.952,256.702 414.285,257.369 410.5,257.5C 410.737,256.209 410.404,255.209 409.5,254.5C 411.169,250.649 411.669,246.649 411,242.5C 408.539,226.063 401.539,224.063 390,236.5C 389.508,235.451 389.674,234.451 390.5,233.5C 389.575,232.438 388.575,232.438 387.5,233.5C 387.875,231.302 388.542,229.302 389.5,227.5C 389.281,228.675 389.614,229.675 390.5,230.5C 392.145,228.075 393.311,225.408 394,222.5C 396.671,213.684 401.171,205.518 407.5,198C 406.552,197.517 405.552,197.351 404.5,197.5C 405.514,196.326 406.847,195.66 408.5,195.5C 411.964,197.729 413.964,201.062 414.5,205.5C 412.657,212.846 409.99,219.846 406.5,226.5C 406.833,226.833 407.167,227.167 407.5,227.5C 411.613,220.885 414.28,213.719 415.5,206C 415.149,202.93 414.483,199.93 413.5,197C 414.13,195.69 415.13,194.856 416.5,194.5 Z"/></g>
<g><path style="opacity:1" fill="#2d4949" d="M 414.5,193.5 C 415.492,193.328 416.158,193.662 416.5,194.5C 415.13,194.856 414.13,195.69 413.5,197C 414.483,199.93 415.149,202.93 415.5,206C 414.28,213.719 411.613,220.885 407.5,227.5C 407.167,227.167 406.833,226.833 406.5,226.5C 409.99,219.846 412.657,212.846 414.5,205.5C 413.964,201.062 411.964,197.729 408.5,195.5C 410.302,194.542 412.302,193.875 414.5,193.5 Z"/></g>
<g><path style="opacity:1" fill="#9a926f" d="M 146.5,174.5 C 147.492,176.456 148.492,178.456 149.5,180.5C 148.778,180.918 148.278,181.584 148,182.5C 147.874,185.063 147.707,187.396 147.5,189.5C 146.579,189.93 146.079,191.264 146,193.5C 145.501,198.155 145.334,202.821 145.5,207.5C 140.007,216.481 134.507,225.481 129,234.5C 124.653,237.837 121.486,242.004 119.5,247C 123.133,247.149 126.466,247.982 129.5,249.5C 124.851,248.705 120.184,248.539 115.5,249C 113.273,249.941 111.273,251.108 109.5,252.5C 108.596,251.791 108.263,250.791 108.5,249.5C 111.009,248.255 113.675,247.255 116.5,246.5C 118.12,242.894 120.12,239.56 122.5,236.5C 123.167,236.5 123.5,236.167 123.5,235.5C 124.794,234.71 125.961,233.71 127,232.5C 132.667,223.833 138.333,215.167 144,206.5C 144.097,195.717 144.931,185.05 146.5,174.5 Z"/></g>
<g><path style="opacity:1" fill="#d8b62f" d="M 360.5,197.5 C 359.22,199.434 358.554,201.267 358.5,203C 360.729,210.289 363.895,217.123 368,223.5C 374.319,230.121 377.153,228.455 376.5,218.5C 377.825,224.234 377.825,230.068 376.5,236C 375.5,236.667 374.5,236.667 373.5,236C 368.206,232.367 364.372,227.534 362,221.5C 361.667,224.833 361.333,228.167 361,231.5C 354.361,223.738 351.861,214.738 353.5,204.5C 354.612,202.401 355.279,200.067 355.5,197.5C 357.167,197.5 358.833,197.5 360.5,197.5 Z"/></g>
<g><path style="opacity:0.988" fill="#9b947e" d="M 339.5,215.5 C 344.844,220.843 350.511,225.843 356.5,230.5C 357.167,230.5 357.5,230.833 357.5,231.5C 356.833,231.5 356.5,231.833 356.5,232.5C 355.883,232.389 355.383,232.056 355,231.5C 354.722,232.416 354.222,233.082 353.5,233.5C 349.228,227.89 344.562,222.557 339.5,217.5C 338.494,216.604 338.494,215.938 339.5,215.5 Z"/></g>
<g><path style="opacity:1" fill="#856a22" d="M 352.5,201.5 C 353.404,202.209 353.737,203.209 353.5,204.5C 351.861,214.738 354.361,223.738 361,231.5C 361.333,228.167 361.667,224.833 362,221.5C 364.372,227.534 368.206,232.367 373.5,236C 374.5,236.667 375.5,236.667 376.5,236C 377.825,230.068 377.825,224.234 376.5,218.5C 376.34,216.801 376.506,215.134 377,213.5C 378.667,216.5 380.333,219.5 382,222.5C 382.464,221.906 382.631,221.239 382.5,220.5C 383.147,221.274 383.48,222.274 383.5,223.5C 383.36,225.03 382.693,226.03 381.5,226.5C 380.883,226.389 380.383,226.056 380,225.5C 379.503,228.146 379.336,230.813 379.5,233.5C 379.5,234.167 379.5,234.833 379.5,235.5C 378.494,235.938 378.494,236.604 379.5,237.5C 376.833,237.5 374.167,237.5 371.5,237.5C 370.564,236.026 369.23,235.026 367.5,234.5C 367.167,234.5 366.833,234.5 366.5,234.5C 366.167,233.833 365.833,233.167 365.5,232.5C 365.539,231.244 365.039,230.244 364,229.5C 363.667,231.5 363.333,233.5 363,235.5C 360.795,234.588 358.962,233.255 357.5,231.5C 357.5,230.833 357.167,230.5 356.5,230.5C 351.491,221.383 350.157,211.716 352.5,201.5 Z M 365.5,232.5 C 365.833,233.167 366.167,233.833 366.5,234.5C 364.576,234.289 364.243,233.623 365.5,232.5 Z"/></g>
<g><path style="opacity:0.039" fill="#eef0dd" d="M 98.5,227.5 C 98.719,228.675 98.3857,229.675 97.5,230.5C 96.8933,230.376 96.56,230.043 96.5,229.5C 97.3382,229.158 97.6716,228.492 97.5,227.5C 97.8333,226.167 98.1667,226.167 98.5,227.5 Z"/></g>
<g><path style="opacity:1" fill="#f4f0d7" d="M 333.5,191.5 C 335.074,193.102 335.741,195.102 335.5,197.5C 334.844,198.622 334.511,199.955 334.5,201.5C 336.125,207.415 336.625,213.415 336,219.5C 330.77,229.624 325.27,239.624 319.5,249.5C 305.087,268.642 290.42,287.642 275.5,306.5C 273.669,305.005 271.502,304.338 269,304.5C 263.839,305.06 258.673,305.56 253.5,306C 252.944,306.383 252.611,306.883 252.5,307.5C 251.022,307.762 249.689,307.429 248.5,306.5C 253.307,302.039 257.307,297.039 260.5,291.5C 263.122,289.218 265.788,286.885 268.5,284.5C 268.165,289.401 265.832,293.235 261.5,296C 262.416,296.374 263.25,296.874 264,297.5C 265.648,296.283 267.481,295.45 269.5,295C 274,289.833 278.5,284.667 283,279.5C 283.507,280.996 283.007,282.163 281.5,283C 282.628,285.065 284.294,285.732 286.5,285C 295.662,274.927 303.328,264.261 309.5,253C 308.975,252.308 308.308,251.808 307.5,251.5C 304.566,253.369 302.066,255.703 300,258.5C 303.722,251.933 307.888,245.433 312.5,239C 311.707,236.568 311.374,234.234 311.5,232C 316.581,231.669 320.081,229.169 322,224.5C 323.045,221.564 323.879,218.564 324.5,215.5C 322.019,214.14 322.352,213.14 325.5,212.5C 326.308,210.577 326.808,208.577 327,206.5C 328.402,208.973 329.902,208.973 331.5,206.5C 332.639,203.611 333.306,200.611 333.5,197.5C 333.415,195.667 332.748,194.334 331.5,193.5C 331.833,192.5 332.5,191.833 333.5,191.5 Z"/></g>
<g><path style="opacity:0.071" fill="#e6dbbe" d="M 381.5,226.5 C 381.5,226.833 381.5,227.167 381.5,227.5C 380.833,229.5 380.167,231.5 379.5,233.5C 379.336,230.813 379.503,228.146 380,225.5C 380.383,226.056 380.883,226.389 381.5,226.5 Z"/></g>
<g><path style="opacity:1" fill="#71a4a6" d="M 88.5,224.5 C 93.1533,227.994 96.9866,232.327 100,237.5C 102.94,243.046 105.606,248.713 108,254.5C 108.667,256.5 108.667,258.5 108,260.5C 104.304,264.421 102.47,269.087 102.5,274.5C 100.143,276.557 97.4764,276.89 94.5,275.5C 93.0499,274.15 92.3832,272.484 92.5,270.5C 92.5,269.833 92.5,269.167 92.5,268.5C 95.1417,266.738 94.975,266.405 92,267.5C 91.3333,263.5 91.3333,259.5 92,255.5C 94.1748,254.745 96.3415,253.912 98.5,253C 93.7665,244.639 90.0998,235.806 87.5,226.5C 87.5427,225.584 87.8761,224.917 88.5,224.5 Z"/></g>
<g><path style="opacity:1" fill="#b3ad87" d="M 335.5,197.5 C 337.046,203.442 338.38,209.442 339.5,215.5C 338.494,215.938 338.494,216.604 339.5,217.5C 333.944,227.286 328.444,237.286 323,247.5C 322.184,248.823 321.017,249.489 319.5,249.5C 325.27,239.624 330.77,229.624 336,219.5C 336.625,213.415 336.125,207.415 334.5,201.5C 334.511,199.955 334.844,198.622 335.5,197.5 Z"/></g>
<g><path style="opacity:0.078" fill="#cec3bf" d="M 118.5,235.5 C 118.328,236.492 118.662,237.158 119.5,237.5C 118.698,238.885 118.031,238.718 117.5,237C 117.57,236.235 117.903,235.735 118.5,235.5 Z"/></g>
<g><path style="opacity:1" fill="#8f8256" d="M 365.5,232.5 C 364.243,233.623 364.576,234.289 366.5,234.5C 366.833,235.833 367.167,235.833 367.5,234.5C 369.23,235.026 370.564,236.026 371.5,237.5C 366.797,237.437 362.13,237.771 357.5,238.5C 358.739,237.788 359.239,236.788 359,235.5C 356.422,235.003 354.589,234.336 353.5,233.5C 354.222,233.082 354.722,232.416 355,231.5C 355.383,232.056 355.883,232.389 356.5,232.5C 357.167,232.5 357.5,232.167 357.5,231.5C 358.962,233.255 360.795,234.588 363,235.5C 363.333,233.5 363.667,231.5 364,229.5C 365.039,230.244 365.539,231.244 365.5,232.5 Z"/></g>
<g><path style="opacity:0.98" fill="#959276" d="M 379.5,235.5 C 382.229,236.53 384.896,236.53 387.5,235.5C 387.768,237.099 387.434,238.432 386.5,239.5C 384.167,238.833 381.833,238.167 379.5,237.5C 378.494,236.604 378.494,235.938 379.5,235.5 Z"/></g>
<g><path style="opacity:1" fill="#fbf5d9" d="M 339.5,217.5 C 344.562,222.557 349.228,227.89 353.5,233.5C 354.589,234.336 356.422,235.003 359,235.5C 359.239,236.788 358.739,237.788 357.5,238.5C 353.464,239.02 350.297,241.02 348,244.5C 344.48,250.394 342.146,256.727 341,263.5C 339.211,259.308 337.877,254.975 337,250.5C 336.667,253.167 336.333,255.833 336,258.5C 336.066,252.17 336.066,245.837 336,239.5C 334.892,245.803 334.058,252.136 333.5,258.5C 333.084,268.141 331.417,277.474 328.5,286.5C 314.664,297.554 298.997,303.22 281.5,303.5C 294.644,286.178 307.644,268.678 320.5,251C 319.944,250.617 319.611,250.117 319.5,249.5C 321.017,249.489 322.184,248.823 323,247.5C 328.444,237.286 333.944,227.286 339.5,217.5 Z"/></g>
<g><path style="opacity:1" fill="#a7a076" d="M 147.5,189.5 C 148.379,195.204 148.545,200.87 148,206.5C 150.37,209.039 152.87,211.372 155.5,213.5C 165.977,224.14 176.977,234.307 188.5,244C 207.705,262.704 226.372,281.871 244.5,301.5C 245.122,302.627 245.955,303.627 247,304.5C 251.731,299.938 256.231,295.271 260.5,290.5C 260.5,290.833 260.5,291.167 260.5,291.5C 257.307,297.039 253.307,302.039 248.5,306.5C 249.689,307.429 251.022,307.762 252.5,307.5C 247.167,308.833 241.833,308.833 236.5,307.5C 239.518,307.665 242.518,307.498 245.5,307C 239.63,299.093 232.963,291.927 225.5,285.5C 212.722,272.553 200.055,259.386 187.5,246C 175.331,235.329 163.331,224.496 151.5,213.5C 149.785,211.118 147.785,209.118 145.5,207.5C 145.334,202.821 145.501,198.155 146,193.5C 146.079,191.264 146.579,189.93 147.5,189.5 Z"/></g>
<g><path style="opacity:1" fill="#2b423a" d="M 409.5,254.5 C 408.5,255.167 407.5,255.833 406.5,256.5C 408.015,253.298 409.348,249.965 410.5,246.5C 410.255,244.337 409.255,242.67 407.5,241.5C 405.517,243.984 403.35,246.317 401,248.5C 400.833,248.167 400.667,247.833 400.5,247.5C 405.145,243.059 406.979,237.726 406,231.5C 403.757,229.213 401.257,229.047 398.5,231C 393.618,234.214 389.785,238.381 387,243.5C 386.421,247.203 386.588,250.869 387.5,254.5C 385.991,251.121 384.991,247.455 384.5,243.5C 380.459,247.764 377.625,252.764 376,258.5C 375.171,263.137 374.671,267.804 374.5,272.5C 380.189,272.468 385.855,272.134 391.5,271.5C 390.737,272.268 389.737,272.768 388.5,273C 383.511,273.499 378.511,273.666 373.5,273.5C 372.662,273.158 372.328,272.492 372.5,271.5C 372.945,264.284 374.445,257.284 377,250.5C 379.314,246.025 382.48,242.358 386.5,239.5C 387.434,238.432 387.768,237.099 387.5,235.5C 387.5,234.833 387.5,234.167 387.5,233.5C 388.575,232.438 389.575,232.438 390.5,233.5C 389.674,234.451 389.508,235.451 390,236.5C 401.539,224.063 408.539,226.063 411,242.5C 411.669,246.649 411.169,250.649 409.5,254.5 Z"/></g>
<g><path style="opacity:1" fill="#e7dcaf" d="M 145.5,207.5 C 147.785,209.118 149.785,211.118 151.5,213.5C 149.629,213.859 148.129,214.859 147,216.5C 139.978,224.688 133.144,233.021 126.5,241.5C 140.172,246.836 146.172,256.836 144.5,271.5C 142.572,261.933 137.572,254.6 129.5,249.5C 126.466,247.982 123.133,247.149 119.5,247C 121.486,242.004 124.653,237.837 129,234.5C 134.507,225.481 140.007,216.481 145.5,207.5 Z"/></g>
<g><path style="opacity:1" fill="#fbf5d9" d="M 371.5,237.5 C 374.167,237.5 376.833,237.5 379.5,237.5C 381.833,238.167 384.167,238.833 386.5,239.5C 382.48,242.358 379.314,246.025 377,250.5C 374.445,257.284 372.945,264.284 372.5,271.5C 371.549,272.919 371.216,274.585 371.5,276.5C 349.232,276.662 342.399,266.328 351,245.5C 353.192,243.051 355.359,240.718 357.5,238.5C 362.13,237.771 366.797,237.437 371.5,237.5 Z"/></g>
<g><path style="opacity:1" fill="#71a4a6" d="M 406.5,256.5 C 401.975,259.672 396.975,260.672 391.5,259.5C 390.113,257.79 388.779,256.123 387.5,254.5C 386.588,250.869 386.421,247.203 387,243.5C 389.785,238.381 393.618,234.214 398.5,231C 401.257,229.047 403.757,229.213 406,231.5C 406.979,237.726 405.145,243.059 400.5,247.5C 400.667,247.833 400.833,248.167 401,248.5C 403.35,246.317 405.517,243.984 407.5,241.5C 409.255,242.67 410.255,244.337 410.5,246.5C 409.348,249.965 408.015,253.298 406.5,256.5 Z"/></g>
<g><path style="opacity:1" fill="#fcf5d8" d="M 151.5,213.5 C 163.331,224.496 175.331,235.329 187.5,246C 200.055,259.386 212.722,272.553 225.5,285.5C 226.203,287.716 227.536,289.549 229.5,291C 228.833,291.333 228.167,291.667 227.5,292C 233.282,295.281 237.949,299.781 241.5,305.5C 236.154,306.601 230.821,306.434 225.5,305C 215.653,299.914 206.319,294.081 197.5,287.5C 196.479,288.002 196.312,288.668 197,289.5C 200.715,293.389 203.881,297.722 206.5,302.5C 206.333,302.833 206.167,303.167 206,303.5C 204.103,301.984 201.936,301.317 199.5,301.5C 189.824,295.902 181.657,288.568 175,279.5C 173.861,273.564 173.195,267.564 173,261.5C 171.03,264.968 168.864,268.301 166.5,271.5C 165.998,272.521 165.332,272.688 164.5,272C 167.78,260.211 166.946,248.711 162,237.5C 160.541,234.244 158.374,231.577 155.5,229.5C 155.167,229.833 154.833,230.167 154.5,230.5C 162.005,241.542 163.172,253.208 158,265.5C 150.785,277.048 141.285,286.215 129.5,293C 128.207,293.49 126.873,293.657 125.5,293.5C 125.775,286.695 124.942,280.028 123,273.5C 122.617,272.944 122.117,272.611 121.5,272.5C 120.208,269.713 120.208,266.879 121.5,264C 120.326,257.736 116.826,255.903 111,258.5C 109.872,256.655 109.372,254.655 109.5,252.5C 111.273,251.108 113.273,249.941 115.5,249C 120.184,248.539 124.851,248.705 129.5,249.5C 137.572,254.6 142.572,261.933 144.5,271.5C 146.172,256.836 140.172,246.836 126.5,241.5C 133.144,233.021 139.978,224.688 147,216.5C 148.129,214.859 149.629,213.859 151.5,213.5 Z"/></g>
<g><path style="opacity:1" fill="#e7dbab" d="M 199.5,301.5 C 199.083,302.124 198.416,302.457 197.5,302.5C 190.117,300.895 182.95,298.562 176,295.5C 174.175,295.943 172.342,296.277 170.5,296.5C 169.127,296.657 167.793,296.49 166.5,296C 164.449,293.98 162.116,292.48 159.5,291.5C 157.863,290.026 156.863,288.192 156.5,286C 157.916,282.098 159.082,278.264 160,274.5C 150.884,288.119 139.384,299.119 125.5,307.5C 122.574,308.868 119.574,309.701 116.5,310C 119.653,307.195 121.319,303.695 121.5,299.5C 122.222,299.082 122.722,298.416 123,297.5C 123.498,294.518 123.665,291.518 123.5,288.5C 123.752,283.012 123.085,277.678 121.5,272.5C 122.117,272.611 122.617,272.944 123,273.5C 124.942,280.028 125.775,286.695 125.5,293.5C 126.873,293.657 128.207,293.49 129.5,293C 141.285,286.215 150.785,277.048 158,265.5C 163.172,253.208 162.005,241.542 154.5,230.5C 154.833,230.167 155.167,229.833 155.5,229.5C 158.374,231.577 160.541,234.244 162,237.5C 166.946,248.711 167.78,260.211 164.5,272C 165.332,272.688 165.998,272.521 166.5,271.5C 168.864,268.301 171.03,264.968 173,261.5C 173.195,267.564 173.861,273.564 175,279.5C 181.657,288.568 189.824,295.902 199.5,301.5 Z"/></g>
<g><path style="opacity:1" fill="#31473c" d="M 90.5,222.5 C 92.0615,224.973 94.0615,226.973 96.5,228.5C 96.5,228.833 96.5,229.167 96.5,229.5C 96.56,230.043 96.8933,230.376 97.5,230.5C 98.3857,229.675 98.719,228.675 98.5,227.5C 99.1667,229.833 99.8333,232.167 100.5,234.5C 101.441,236.05 102.107,237.716 102.5,239.5C 103.026,241.23 104.026,242.564 105.5,243.5C 106.492,245.456 107.492,247.456 108.5,249.5C 108.263,250.791 108.596,251.791 109.5,252.5C 109.372,254.655 109.872,256.655 111,258.5C 116.826,255.903 120.326,257.736 121.5,264C 120.208,266.879 120.208,269.713 121.5,272.5C 123.085,277.678 123.752,283.012 123.5,288.5C 116.871,291.723 109.871,292.39 102.5,290.5C 105.168,289.39 108.001,289.39 111,290.5C 120.185,291.318 123.519,287.318 121,278.5C 120.333,276.5 119.667,274.5 119,272.5C 118.085,273.328 117.419,274.328 117,275.5C 116.536,274.906 116.369,274.239 116.5,273.5C 117.416,270.345 118.416,267.178 119.5,264C 116.985,257.209 113.652,256.709 109.5,262.5C 107.926,262.937 106.759,263.937 106,265.5C 105.1,268.718 103.933,271.718 102.5,274.5C 102.47,269.087 104.304,264.421 108,260.5C 108.667,258.5 108.667,256.5 108,254.5C 105.606,248.713 102.94,243.046 100,237.5C 96.9866,232.327 93.1533,227.994 88.5,224.5C 87.4583,223.209 86.2917,223.209 85,224.5C 84.3333,227.167 84.3333,229.833 85,232.5C 88.0074,238.829 90.6741,245.163 93,251.5C 86.8711,243.566 83.2045,234.566 82,224.5C 80.4229,221.461 77.9229,220.128 74.5,220.5C 73.774,231.155 76.9407,240.489 84,248.5C 84.6667,249.833 84.6667,251.167 84,252.5C 80.1737,246.854 76.8404,240.854 74,234.5C 73.2811,230.855 72.7811,227.188 72.5,223.5C 68.1304,224.041 66.1304,226.541 66.5,231C 68.2933,239.709 71.2933,248.042 75.5,256C 74.6683,256.688 74.0016,256.521 73.5,255.5C 70.2364,249.037 67.5698,242.37 65.5,235.5C 65.244,231.731 65.5773,228.064 66.5,224.5C 66.3691,223.624 66.7025,222.957 67.5,222.5C 70.7582,221.229 73.7582,219.562 76.5,217.5C 79.6551,218.15 82.1551,219.817 84,222.5C 86.1632,221.232 88.3298,221.232 90.5,222.5 Z"/></g>
<g><path style="opacity:1" fill="#5e8781" d="M 387.5,254.5 C 388.779,256.123 390.113,257.79 391.5,259.5C 396.975,260.672 401.975,259.672 406.5,256.5C 407.5,255.833 408.5,255.167 409.5,254.5C 410.404,255.209 410.737,256.209 410.5,257.5C 414.285,257.369 417.952,256.702 421.5,255.5C 419.533,258.579 417.2,261.412 414.5,264C 406.885,267.039 399.218,269.539 391.5,271.5C 385.855,272.134 380.189,272.468 374.5,272.5C 374.671,267.804 375.171,263.137 376,258.5C 377.625,252.764 380.459,247.764 384.5,243.5C 384.991,247.455 385.991,251.121 387.5,254.5 Z"/></g>
<g><path style="opacity:0.988" fill="#4e5f56" d="M 428.5,228.5 C 429.03,238.964 427.197,248.964 423,258.5C 419.509,264.789 414.342,268.456 407.5,269.5C 405.265,269.205 403.265,269.539 401.5,270.5C 398.167,270.833 394.833,271.167 391.5,271.5C 399.218,269.539 406.885,267.039 414.5,264C 417.2,261.412 419.533,258.579 421.5,255.5C 425.074,246.582 426.908,237.249 427,227.5C 428.087,225.068 428.587,225.402 428.5,228.5 Z"/></g>
<g><path style="opacity:1" fill="#5e857d" d="M 88.5,224.5 C 87.8761,224.917 87.5427,225.584 87.5,226.5C 90.0998,235.806 93.7665,244.639 98.5,253C 96.3415,253.912 94.1748,254.745 92,255.5C 91.3333,259.5 91.3333,263.5 92,267.5C 94.975,266.405 95.1417,266.738 92.5,268.5C 88.5221,274.358 89.0221,280.025 94,285.5C 92.736,282.097 91.9026,278.431 91.5,274.5C 91.5108,272.955 91.8442,271.622 92.5,270.5C 92.3832,272.484 93.0499,274.15 94.5,275.5C 97.4764,276.89 100.143,276.557 102.5,274.5C 103.933,271.718 105.1,268.718 106,265.5C 106.759,263.937 107.926,262.937 109.5,262.5C 109.335,265.518 109.502,268.518 110,271.5C 111.789,273.229 113.956,273.896 116.5,273.5C 116.369,274.239 116.536,274.906 117,275.5C 117.419,274.328 118.085,273.328 119,272.5C 119.667,274.5 120.333,276.5 121,278.5C 123.519,287.318 120.185,291.318 111,290.5C 108.001,289.39 105.168,289.39 102.5,290.5C 102.167,290.5 101.833,290.5 101.5,290.5C 101.631,289.761 101.464,289.094 101,288.5C 94.4901,291.349 88.1568,291.015 82,287.5C 80.3164,287.683 80.1498,288.35 81.5,289.5C 78.8333,288.167 76.8333,286.167 75.5,283.5C 76.0431,283.44 76.3764,283.107 76.5,282.5C 71.3643,275.445 68.8643,267.445 69,258.5C 63.1931,250.749 60.8597,242.082 62,232.5C 62.3076,231.692 62.8076,231.025 63.5,230.5C 64.1698,232.291 64.8365,233.958 65.5,235.5C 67.5698,242.37 70.2364,249.037 73.5,255.5C 74.0016,256.521 74.6683,256.688 75.5,256C 71.2933,248.042 68.2933,239.709 66.5,231C 66.1304,226.541 68.1304,224.041 72.5,223.5C 72.7811,227.188 73.2811,230.855 74,234.5C 76.8404,240.854 80.1737,246.854 84,252.5C 84.6667,251.167 84.6667,249.833 84,248.5C 76.9407,240.489 73.774,231.155 74.5,220.5C 77.9229,220.128 80.4229,221.461 82,224.5C 83.2045,234.566 86.8711,243.566 93,251.5C 90.6741,245.163 88.0074,238.829 85,232.5C 84.3333,229.833 84.3333,227.167 85,224.5C 86.2917,223.209 87.4583,223.209 88.5,224.5 Z"/></g>
<g><path style="opacity:1" fill="#74a6a6" d="M 116.5,273.5 C 113.956,273.896 111.789,273.229 110,271.5C 109.502,268.518 109.335,265.518 109.5,262.5C 113.652,256.709 116.985,257.209 119.5,264C 118.416,267.178 117.416,270.345 116.5,273.5 Z"/></g>
<g><path style="opacity:1" fill="#495853" d="M 66.5,224.5 C 65.5773,228.064 65.244,231.731 65.5,235.5C 64.8365,233.958 64.1698,232.291 63.5,230.5C 62.8076,231.025 62.3076,231.692 62,232.5C 60.8597,242.082 63.1931,250.749 69,258.5C 68.8643,267.445 71.3643,275.445 76.5,282.5C 76.3764,283.107 76.0431,283.44 75.5,283.5C 69.8385,277.03 67.0051,269.363 67,260.5C 63.7805,254.729 61.1139,248.729 59,242.5C 58.3333,239.167 58.3333,235.833 59,232.5C 59.8747,229.785 61.7081,228.452 64.5,228.5C 64.1568,226.517 64.8235,225.183 66.5,224.5 Z"/></g>
<g><path style="opacity:1" fill="#f9f7e1" d="M 331.5,193.5 C 332.748,194.334 333.415,195.667 333.5,197.5C 333.306,200.611 332.639,203.611 331.5,206.5C 329.902,208.973 328.402,208.973 327,206.5C 326.808,208.577 326.308,210.577 325.5,212.5C 322.352,213.14 322.019,214.14 324.5,215.5C 323.879,218.564 323.045,221.564 322,224.5C 320.081,229.169 316.581,231.669 311.5,232C 311.374,234.234 311.707,236.568 312.5,239C 307.888,245.433 303.722,251.933 300,258.5C 302.066,255.703 304.566,253.369 307.5,251.5C 308.308,251.808 308.975,252.308 309.5,253C 303.328,264.261 295.662,274.927 286.5,285C 284.294,285.732 282.628,285.065 281.5,283C 283.007,282.163 283.507,280.996 283,279.5C 278.5,284.667 274,289.833 269.5,295C 267.481,295.45 265.648,296.283 264,297.5C 263.25,296.874 262.416,296.374 261.5,296C 265.832,293.235 268.165,289.401 268.5,284.5C 281.216,269.281 293.383,253.614 305,237.5C 315.347,223.673 324.181,209.007 331.5,193.5 Z"/></g>
<g><path style="opacity:1" fill="#afa880" d="M 319.5,249.5 C 319.611,250.117 319.944,250.617 320.5,251C 307.644,268.678 294.644,286.178 281.5,303.5C 279.833,304.5 278.5,305.833 277.5,307.5C 276.508,307.672 275.842,307.338 275.5,306.5C 290.42,287.642 305.087,268.642 319.5,249.5 Z"/></g>
<g><path style="opacity:1" fill="#1a3c37" d="M 92.5,268.5 C 92.5,269.167 92.5,269.833 92.5,270.5C 91.8442,271.622 91.5108,272.955 91.5,274.5C 91.9026,278.431 92.736,282.097 94,285.5C 89.0221,280.025 88.5221,274.358 92.5,268.5 Z"/></g>
<g><path style="opacity:1" fill="#e7dcab" d="M 357.5,238.5 C 355.359,240.718 353.192,243.051 351,245.5C 342.399,266.328 349.232,276.662 371.5,276.5C 371.881,284.278 374.547,291.111 379.5,297C 377.866,297.494 376.199,297.66 374.5,297.5C 360.561,295.422 347.561,290.089 335.5,281.5C 333.985,279.497 333.319,277.163 333.5,274.5C 334.56,269.001 334.56,263.667 333.5,258.5C 334.058,252.136 334.892,245.803 336,239.5C 336.066,245.837 336.066,252.17 336,258.5C 336.333,255.833 336.667,253.167 337,250.5C 337.877,254.975 339.211,259.308 341,263.5C 342.146,256.727 344.48,250.394 348,244.5C 350.297,241.02 353.464,239.02 357.5,238.5 Z"/></g>
<g><path style="opacity:0.965" fill="#9d966e" d="M 333.5,258.5 C 334.56,263.667 334.56,269.001 333.5,274.5C 333.319,277.163 333.985,279.497 335.5,281.5C 334.662,281.842 334.328,282.508 334.5,283.5C 333.883,283.389 333.383,283.056 333,282.5C 331.594,287.639 329.427,292.305 326.5,296.5C 326.631,295.761 326.464,295.094 326,294.5C 324.259,295.758 322.426,296.758 320.5,297.5C 322.566,294.852 325.066,292.518 328,290.5C 328.49,289.207 328.657,287.873 328.5,286.5C 331.417,277.474 333.084,268.141 333.5,258.5 Z"/></g>
<g><path style="opacity:1" fill="#97916e" d="M 159.5,291.5 C 158.508,291.328 157.842,291.662 157.5,292.5C 155.892,290.915 154.225,289.749 152.5,289C 144.417,297.931 135.084,305.098 124.5,310.5C 124.557,309.391 124.89,308.391 125.5,307.5C 139.384,299.119 150.884,288.119 160,274.5C 159.082,278.264 157.916,282.098 156.5,286C 156.863,288.192 157.863,290.026 159.5,291.5 Z"/></g>
<g><path style="opacity:1" fill="#bab076" d="M 401.5,270.5 C 402.5,270.5 403.5,270.5 404.5,270.5C 402.394,282.759 395.894,291.759 385,297.5C 380.68,295.846 377.68,292.846 376,288.5C 374.105,283.675 373.272,278.675 373.5,273.5C 378.511,273.666 383.511,273.499 388.5,273C 389.737,272.768 390.737,272.268 391.5,271.5C 394.833,271.167 398.167,270.833 401.5,270.5 Z"/></g>
<g><path style="opacity:1" fill="#263221" d="M 101.5,290.5 C 96.6204,292.568 91.6204,292.901 86.5,291.5C 85.609,290.89 84.609,290.557 83.5,290.5C 82.5084,290.672 81.8417,290.338 81.5,289.5C 80.1498,288.35 80.3164,287.683 82,287.5C 88.1568,291.015 94.4901,291.349 101,288.5C 101.464,289.094 101.631,289.761 101.5,290.5 Z"/></g>
<g><path style="opacity:0.553" fill="#847e67" d="M 335.5,281.5 C 347.561,290.089 360.561,295.422 374.5,297.5C 372.973,297.427 371.973,298.094 371.5,299.5C 357.634,297.623 345.301,292.289 334.5,283.5C 334.328,282.508 334.662,281.842 335.5,281.5 Z"/></g>
<g><path style="opacity:1" fill="#f8f4dc" d="M 166.5,199.5 C 199.653,224.314 229.653,252.648 256.5,284.5C 255.992,289.902 254.159,290.902 251,287.5C 251.783,289.345 252.116,291.345 252,293.5C 250.398,295.307 249.064,297.307 248,299.5C 247.184,300.823 246.017,301.489 244.5,301.5C 226.372,281.871 207.705,262.704 188.5,244C 176.977,234.307 165.977,224.14 155.5,213.5C 155.415,212.005 156.081,211.005 157.5,210.5C 161.108,211.451 161.108,210.618 157.5,208C 159.833,205.333 162.167,202.667 164.5,200C 165.094,199.536 165.761,199.369 166.5,199.5 Z"/></g>
<g><path style="opacity:1" fill="#bab075" d="M 123.5,288.5 C 123.665,291.518 123.498,294.518 123,297.5C 122.722,298.416 122.222,299.082 121.5,299.5C 113.961,313.914 104.461,315.247 93,303.5C 90.0437,299.92 87.877,295.92 86.5,291.5C 91.6204,292.901 96.6204,292.568 101.5,290.5C 101.833,290.5 102.167,290.5 102.5,290.5C 109.871,292.39 116.871,291.723 123.5,288.5 Z"/></g>
<g><path style="opacity:1" fill="#dfd7ae" d="M 256.5,284.5 C 259.044,285.708 260.378,287.708 260.5,290.5C 256.231,295.271 251.731,299.938 247,304.5C 245.955,303.627 245.122,302.627 244.5,301.5C 246.017,301.489 247.184,300.823 248,299.5C 249.064,297.307 250.398,295.307 252,293.5C 252.116,291.345 251.783,289.345 251,287.5C 254.159,290.902 255.992,289.902 256.5,284.5 Z"/></g>
<g><path style="opacity:1" fill="#424729" d="M 159.5,291.5 C 162.116,292.48 164.449,293.98 166.5,296C 167.793,296.49 169.127,296.657 170.5,296.5C 174.195,298.432 178.195,299.765 182.5,300.5C 182.849,306.723 182.849,313.39 182.5,320.5C 184.553,320.402 186.22,321.069 187.5,322.5C 176.81,320.152 166.81,316.152 157.5,310.5C 157.5,308.167 157.5,305.833 157.5,303.5C 157.5,299.833 157.5,296.167 157.5,292.5C 157.842,291.662 158.508,291.328 159.5,291.5 Z"/></g>
<g><path style="opacity:0.929" fill="#76704d" d="M 401.5,270.5 C 403.265,269.539 405.265,269.205 407.5,269.5C 404.929,283.218 397.596,293.385 385.5,300C 380.648,300.815 375.981,300.648 371.5,299.5C 371.973,298.094 372.973,297.427 374.5,297.5C 376.199,297.66 377.866,297.494 379.5,297C 374.547,291.111 371.881,284.278 371.5,276.5C 371.216,274.585 371.549,272.919 372.5,271.5C 372.328,272.492 372.662,273.158 373.5,273.5C 373.272,278.675 374.105,283.675 376,288.5C 377.68,292.846 380.68,295.846 385,297.5C 395.894,291.759 402.394,282.759 404.5,270.5C 403.5,270.5 402.5,270.5 401.5,270.5 Z"/></g>
<g><path style="opacity:1" fill="#dfd8aa" d="M 328.5,286.5 C 328.657,287.873 328.49,289.207 328,290.5C 325.066,292.518 322.566,294.852 320.5,297.5C 308.263,302.725 295.596,306.058 282.5,307.5C 280.833,307.5 279.167,307.5 277.5,307.5C 278.5,305.833 279.833,304.5 281.5,303.5C 298.997,303.22 314.664,297.554 328.5,286.5 Z"/></g>
<g><path style="opacity:1" fill="#dfd8af" d="M 225.5,285.5 C 232.963,291.927 239.63,299.093 245.5,307C 242.518,307.498 239.518,307.665 236.5,307.5C 231.5,307.5 226.5,307.5 221.5,307.5C 208.413,305.817 195.413,303.483 182.5,300.5C 178.195,299.765 174.195,298.432 170.5,296.5C 172.342,296.277 174.175,295.943 176,295.5C 182.95,298.562 190.117,300.895 197.5,302.5C 198.416,302.457 199.083,302.124 199.5,301.5C 201.936,301.317 204.103,301.984 206,303.5C 206.167,303.167 206.333,302.833 206.5,302.5C 203.881,297.722 200.715,293.389 197,289.5C 196.312,288.668 196.479,288.002 197.5,287.5C 206.319,294.081 215.653,299.914 225.5,305C 230.821,306.434 236.154,306.601 241.5,305.5C 237.949,299.781 233.282,295.281 227.5,292C 228.167,291.667 228.833,291.333 229.5,291C 227.536,289.549 226.203,287.716 225.5,285.5 Z"/></g>
<g><path style="opacity:1" fill="#515738" d="M 326.5,296.5 C 326.5,300.5 326.5,304.5 326.5,308.5C 325.732,310.715 325.065,313.048 324.5,315.5C 316.949,319.943 308.949,323.277 300.5,325.5C 294.915,322.327 289.915,318.161 285.5,313C 282.798,311.66 280.131,310.327 277.5,309C 280.833,308.667 284.167,308.333 287.5,308C 285.866,307.506 284.199,307.34 282.5,307.5C 295.596,306.058 308.263,302.725 320.5,297.5C 322.426,296.758 324.259,295.758 326,294.5C 326.464,295.094 326.631,295.761 326.5,296.5 Z"/></g>
<g><path style="opacity:0.851" fill="#747052" d="M 83.5,290.5 C 84.609,290.557 85.609,290.89 86.5,291.5C 87.877,295.92 90.0437,299.92 93,303.5C 104.461,315.247 113.961,313.914 121.5,299.5C 121.319,303.695 119.653,307.195 116.5,310C 119.574,309.701 122.574,308.868 125.5,307.5C 124.89,308.391 124.557,309.391 124.5,310.5C 111.611,318.489 100.444,316.489 91,304.5C 87.7094,300.252 85.2094,295.585 83.5,290.5 Z"/></g>
<g><path style="opacity:1" fill="#3d4225" d="M 275.5,306.5 C 275.842,307.338 276.508,307.672 277.5,307.5C 279.167,307.5 280.833,307.5 282.5,307.5C 284.199,307.34 285.866,307.506 287.5,308C 284.167,308.333 280.833,308.667 277.5,309C 280.131,310.327 282.798,311.66 285.5,313C 289.915,318.161 294.915,322.327 300.5,325.5C 299.475,325.897 299.308,326.563 300,327.5C 301.371,329.041 302.871,330.375 304.5,331.5C 312.238,340.244 319.238,349.577 325.5,359.5C 325.932,360.71 326.599,361.71 327.5,362.5C 328.902,364.875 330.235,367.209 331.5,369.5C 332.529,371.517 333.529,373.517 334.5,375.5C 334.167,375.5 333.833,375.5 333.5,375.5C 329.858,370.903 326.692,365.903 324,360.5C 322.701,360.034 321.201,360.034 319.5,360.5C 321.056,353.15 318.39,350.15 311.5,351.5C 312.269,348.829 312.602,346.329 312.5,344C 310.5,341.333 308.5,338.667 306.5,336C 305.552,335.517 304.552,335.351 303.5,335.5C 303.649,334.448 303.483,333.448 303,332.5C 297.833,327.333 292.667,322.167 287.5,317C 286.517,316.409 285.85,316.743 285.5,318C 287.695,324.25 288.028,330.584 286.5,337C 291.748,344.192 297.082,351.859 302.5,360C 301.906,360.464 301.239,360.631 300.5,360.5C 293.769,350.262 286.435,340.428 278.5,331C 276.432,331.017 274.766,332.017 273.5,334C 270.522,334.696 267.522,335.196 264.5,335.5C 262.833,335.5 261.167,335.5 259.5,335.5C 256.038,334.518 252.371,334.185 248.5,334.5C 248.062,334.565 247.728,334.399 247.5,334C 250.327,329.508 252.494,324.675 254,319.5C 254.333,320.167 254.667,320.833 255,321.5C 255.825,319.299 255.325,317.466 253.5,316C 253.833,315.667 254.167,315.333 254.5,315C 251.944,313.562 249.278,313.562 246.5,315C 236.192,323.107 227.358,332.607 220,343.5C 213.431,353.386 207.764,363.719 203,374.5C 202.023,375.774 201.189,375.774 200.5,374.5C 200.833,373.833 201.167,373.167 201.5,372.5C 201.833,371.833 202.167,371.167 202.5,370.5C 205.498,364.505 208.498,358.505 211.5,352.5C 214.486,347.87 217.486,343.203 220.5,338.5C 222.823,335.874 225.157,333.207 227.5,330.5C 229.114,328.544 230.781,326.544 232.5,324.5C 219.378,323.327 206.378,321.493 193.5,319C 194.43,318.009 195.596,317.509 197,317.5C 210.063,320.082 223.23,321.248 236.5,321C 240.542,317.543 244.208,314.543 247.5,312C 238.779,310.165 230.112,308.665 221.5,307.5C 226.5,307.5 231.5,307.5 236.5,307.5C 241.833,308.833 247.167,308.833 252.5,307.5C 252.611,306.883 252.944,306.383 253.5,306C 258.673,305.56 263.839,305.06 269,304.5C 271.502,304.338 273.669,305.005 275.5,306.5 Z"/></g>
<g><path style="opacity:1" fill="#515737" d="M 255.5,307.5 C 260.589,306.428 264.422,308.095 267,312.5C 268.363,316.761 268.696,321.095 268,325.5C 266.814,329.378 264.314,331.211 260.5,331C 261.696,330.346 261.696,329.846 260.5,329.5C 259.522,329.977 258.689,330.643 258,331.5C 257.374,329.009 256.541,329.009 255.5,331.5C 255.167,331.167 254.833,330.833 254.5,330.5C 259.412,323.045 259.745,315.378 255.5,307.5 Z"/></g>
<g><path style="opacity:1" fill="#515737" d="M 182.5,300.5 C 195.413,303.483 208.413,305.817 221.5,307.5C 230.112,308.665 238.779,310.165 247.5,312C 244.208,314.543 240.542,317.543 236.5,321C 223.23,321.248 210.063,320.082 197,317.5C 195.596,317.509 194.43,318.009 193.5,319C 206.378,321.493 219.378,323.327 232.5,324.5C 230.781,326.544 229.114,328.544 227.5,330.5C 227.389,329.883 227.056,329.383 226.5,329C 213.168,328.556 200.168,326.389 187.5,322.5C 186.22,321.069 184.553,320.402 182.5,320.5C 182.849,313.39 182.849,306.723 182.5,300.5 Z"/></g>
<g><path style="opacity:0.941" fill="#9d9671" d="M 157.5,303.5 C 157.5,305.833 157.5,308.167 157.5,310.5C 149.129,319.551 141.962,329.551 136,340.5C 133.091,345.934 134.591,349.601 140.5,351.5C 141.522,351.145 142.189,350.478 142.5,349.5C 143.167,349.833 143.833,350.167 144.5,350.5C 142.833,353.167 141.167,355.833 139.5,358.5C 135.597,364.744 132.597,371.41 130.5,378.5C 125.08,394.192 121.08,410.359 118.5,427C 118.738,431.072 120.738,433.905 124.5,435.5C 139.755,442.584 155.755,445.25 172.5,443.5C 177.944,443.545 182.777,441.879 187,438.5C 190.128,431.615 192.962,424.615 195.5,417.5C 195.182,416.353 194.516,415.519 193.5,415C 207.134,400.52 223.134,389.52 241.5,382C 248.709,379.799 256.042,378.466 263.5,378C 257.734,379.386 252.068,381.053 246.5,383C 260.922,387.1 274.255,393.433 286.5,402C 291.685,404.601 297.018,406.601 302.5,408C 301.5,408.167 300.5,408.333 299.5,408.5C 296.822,407.825 294.156,407.158 291.5,406.5C 292.366,410.744 294.366,414.411 297.5,417.5C 297.154,418.696 296.654,418.696 296,417.5C 294.194,422.378 293.527,427.378 294,432.5C 298.573,435.97 303.74,437.97 309.5,438.5C 326.06,441.446 342.393,440.279 358.5,435C 359.126,434.25 359.626,433.416 360,432.5C 361.457,423.794 363.124,415.127 365,406.5C 369.793,385.03 363.293,368.03 345.5,355.5C 345.189,354.522 344.522,353.855 343.5,353.5C 337.78,356.021 332.447,359.021 327.5,362.5C 326.599,361.71 325.932,360.71 325.5,359.5C 330.928,357.287 336.261,354.787 341.5,352C 344.492,350.685 346.825,348.685 348.5,346C 348.355,345.228 348.022,344.561 347.5,344C 345.793,343.805 344.126,343.805 342.5,344C 344.612,343.094 345.445,341.594 345,339.5C 339.683,331.691 333.85,324.358 327.5,317.5C 327.027,316.094 326.027,315.427 324.5,315.5C 325.065,313.048 325.732,310.715 326.5,308.5C 326.343,309.873 326.51,311.207 327,312.5C 335.816,321.646 343.483,331.646 350,342.5C 352.607,347.009 351.441,350.175 346.5,352C 351.333,356.167 355.833,360.667 360,365.5C 366.296,373.17 369.463,382.003 369.5,392C 367.366,406.807 364.699,421.474 361.5,436C 359.287,437.616 356.953,438.783 354.5,439.5C 352.265,439.205 350.265,439.539 348.5,440.5C 332.781,442.061 317.114,441.727 301.5,439.5C 297.79,439.126 294.79,437.459 292.5,434.5C 291.995,427.862 291.828,421.195 292,414.5C 290.628,411.382 289.462,408.216 288.5,405C 278.963,400.304 269.629,395.304 260.5,390C 254.987,387.705 249.321,385.872 243.5,384.5C 226.76,390.728 212.26,400.394 200,413.5C 196.256,422.908 192.422,432.241 188.5,441.5C 183.323,444.714 177.657,446.547 171.5,447C 170.244,447.417 169.577,448.25 169.5,449.5C 169.5,450.5 169.5,451.5 169.5,452.5C 168.833,450.5 168.167,448.5 167.5,446.5C 155.758,446.257 144.091,444.59 132.5,441.5C 130.735,440.539 128.735,440.205 126.5,440.5C 123.238,438.081 120.071,435.415 117,432.5C 117.874,404.92 125.04,379.086 138.5,355C 136.021,352.348 133.688,349.515 131.5,346.5C 136.613,331.882 144.78,319.216 156,308.5C 156.198,306.618 156.698,304.952 157.5,303.5 Z"/></g>
<g><path style="opacity:1" fill="#e7dbab" d="M 156.5,360.5 C 171.364,365.269 186.364,369.269 201.5,372.5C 201.167,373.167 200.833,373.833 200.5,374.5C 199.606,376.308 198.606,378.142 197.5,380C 202.298,384.732 207.965,387.899 214.5,389.5C 216.086,390.413 217.586,390.413 219,389.5C 221.513,384.473 224.013,379.473 226.5,374.5C 253.142,376.947 279.476,375.28 305.5,369.5C 308.637,374.161 311.637,378.994 314.5,384C 317.167,384.667 319.833,384.667 322.5,384C 326.638,381.685 330.305,378.852 333.5,375.5C 333.833,375.5 334.167,375.5 334.5,375.5C 332.443,379.067 329.777,382.234 326.5,385C 322.324,387.846 318.158,390.68 314,393.5C 309.578,390.034 306.078,385.7 303.5,380.5C 295.598,380.012 287.932,381.345 280.5,384.5C 287.123,388.977 294.123,392.644 301.5,395.5C 298.674,398.519 299.007,401.019 302.5,403C 306.58,404.058 310.747,404.558 315,404.5C 320.294,404.453 325.461,403.953 330.5,403C 325.15,406.008 320.15,409.508 315.5,413.5C 314.311,414.429 312.978,414.762 311.5,414.5C 310.998,422.515 310.331,430.515 309.5,438.5C 303.74,437.97 298.573,435.97 294,432.5C 293.527,427.378 294.194,422.378 296,417.5C 296.654,418.696 297.154,418.696 297.5,417.5C 294.366,414.411 292.366,410.744 291.5,406.5C 294.156,407.158 296.822,407.825 299.5,408.5C 300.5,408.333 301.5,408.167 302.5,408C 297.018,406.601 291.685,404.601 286.5,402C 274.255,393.433 260.922,387.1 246.5,383C 252.068,381.053 257.734,379.386 263.5,378C 256.042,378.466 248.709,379.799 241.5,382C 223.134,389.52 207.134,400.52 193.5,415C 194.516,415.519 195.182,416.353 195.5,417.5C 192.962,424.615 190.128,431.615 187,438.5C 182.777,441.879 177.944,443.545 172.5,443.5C 176.498,434.845 179.331,425.845 181,416.5C 180.667,416.833 180.333,417.167 180,417.5C 177.931,416.736 175.764,416.236 173.5,416C 172.328,415.581 171.328,414.915 170.5,414C 178.817,411.979 186.483,408.646 193.5,404C 194.167,403.333 194.833,402.667 195.5,402C 192.093,401.518 188.76,401.518 185.5,402C 191.173,399.166 196.506,395.833 201.5,392C 198.734,390.533 196.234,388.7 194,386.5C 193.272,383.77 193.438,381.103 194.5,378.5C 184.418,374.962 174.418,371.129 164.5,367C 161.213,365.533 158.546,363.366 156.5,360.5 Z"/></g>
<g><path style="opacity:1" fill="#373a1e" d="M 234.5,358.5 C 232.536,362.814 230.536,367.147 228.5,371.5C 227.599,372.29 226.932,373.29 226.5,374.5C 224.013,379.473 221.513,384.473 219,389.5C 217.586,390.413 216.086,390.413 214.5,389.5C 214.369,388.624 214.702,387.957 215.5,387.5C 216.425,388.641 217.259,388.641 218,387.5C 222.283,377.992 226.95,368.658 232,359.5C 232.671,358.748 233.504,358.414 234.5,358.5 Z"/></g>
<g><path style="opacity:1" fill="#958d5f" d="M 259.5,335.5 C 261.167,335.5 262.833,335.5 264.5,335.5C 260.809,336.823 258.476,339.489 257.5,343.5C 253.981,350.715 250.647,358.048 247.5,365.5C 246.662,365.842 246.328,366.508 246.5,367.5C 245.27,369.297 244.604,371.297 244.5,373.5C 261.335,373.914 278.001,372.581 294.5,369.5C 297.698,368.213 301.031,367.547 304.5,367.5C 305.338,367.842 305.672,368.508 305.5,369.5C 279.476,375.28 253.142,376.947 226.5,374.5C 226.932,373.29 227.599,372.29 228.5,371.5C 232.737,373.527 237.07,373.861 241.5,372.5C 246.4,363.37 250.734,354.036 254.5,344.5C 256.531,341.777 258.198,338.777 259.5,335.5 Z"/></g>
<g><path style="opacity:1" fill="#515737" d="M 248.5,334.5 C 243.801,342.543 239.134,350.543 234.5,358.5C 233.504,358.414 232.671,358.748 232,359.5C 226.95,368.658 222.283,377.992 218,387.5C 217.259,388.641 216.425,388.641 215.5,387.5C 214.702,387.957 214.369,388.624 214.5,389.5C 207.965,387.899 202.298,384.732 197.5,380C 198.606,378.142 199.606,376.308 200.5,374.5C 201.189,375.774 202.023,375.774 203,374.5C 207.764,363.719 213.431,353.386 220,343.5C 227.358,332.607 236.192,323.107 246.5,315C 249.278,313.562 251.944,313.562 254.5,315C 254.167,315.333 253.833,315.667 253.5,316C 255.325,317.466 255.825,319.299 255,321.5C 254.667,320.833 254.333,320.167 254,319.5C 252.494,324.675 250.327,329.508 247.5,334C 247.728,334.399 248.062,334.565 248.5,334.5 Z"/></g>
<g><path style="opacity:1" fill="#f9f2d5" d="M 294.5,369.5 C 278.001,372.581 261.335,373.914 244.5,373.5C 244.604,371.297 245.27,369.297 246.5,367.5C 262.184,367.756 277.684,366.422 293,363.5C 295.078,365.262 295.578,367.262 294.5,369.5 Z"/></g>
<g><path style="opacity:1" fill="#f9f3d6" d="M 254.5,344.5 C 250.734,354.036 246.4,363.37 241.5,372.5C 238.753,372.813 236.086,372.48 233.5,371.5C 237.5,364.167 241.5,356.833 245.5,349.5C 248.384,347.559 251.384,345.893 254.5,344.5 Z"/></g>
<g><path style="opacity:1" fill="#faf3d5" d="M 345.5,355.5 C 363.293,368.03 369.793,385.03 365,406.5C 363.124,415.127 361.457,423.794 360,432.5C 359.626,433.416 359.126,434.25 358.5,435C 342.393,440.279 326.06,441.446 309.5,438.5C 310.331,430.515 310.998,422.515 311.5,414.5C 312.978,414.762 314.311,414.429 315.5,413.5C 320.15,409.508 325.15,406.008 330.5,403C 325.461,403.953 320.294,404.453 315,404.5C 310.747,404.558 306.58,404.058 302.5,403C 299.007,401.019 298.674,398.519 301.5,395.5C 294.123,392.644 287.123,388.977 280.5,384.5C 287.932,381.345 295.598,380.012 303.5,380.5C 306.078,385.7 309.578,390.034 314,393.5C 318.158,390.68 322.324,387.846 326.5,385C 329.777,382.234 332.443,379.067 334.5,375.5C 333.529,373.517 332.529,371.517 331.5,369.5C 331.281,368.325 331.614,367.325 332.5,366.5C 336.668,364.25 340.668,361.75 344.5,359C 345.337,357.989 345.67,356.822 345.5,355.5 Z"/></g>
<g><path style="opacity:1" fill="#ddd5af" d="M 248.5,334.5 C 252.371,334.185 256.038,334.518 259.5,335.5C 258.198,338.777 256.531,341.777 254.5,344.5C 251.384,345.893 248.384,347.559 245.5,349.5C 241.5,356.833 237.5,364.167 233.5,371.5C 236.086,372.48 238.753,372.813 241.5,372.5C 237.07,373.861 232.737,373.527 228.5,371.5C 230.536,367.147 232.536,362.814 234.5,358.5C 239.134,350.543 243.801,342.543 248.5,334.5 Z"/></g>
<g><path style="opacity:1" fill="#515837" d="M 333.5,375.5 C 330.305,378.852 326.638,381.685 322.5,384C 319.833,384.667 317.167,384.667 314.5,384C 311.637,378.994 308.637,374.161 305.5,369.5C 305.672,368.508 305.338,367.842 304.5,367.5C 303.42,365.004 302.086,362.67 300.5,360.5C 301.239,360.631 301.906,360.464 302.5,360C 297.082,351.859 291.748,344.192 286.5,337C 288.028,330.584 287.695,324.25 285.5,318C 285.85,316.743 286.517,316.409 287.5,317C 292.667,322.167 297.833,327.333 303,332.5C 303.483,333.448 303.649,334.448 303.5,335.5C 304.552,335.351 305.552,335.517 306.5,336C 308.5,338.667 310.5,341.333 312.5,344C 312.602,346.329 312.269,348.829 311.5,351.5C 318.39,350.15 321.056,353.15 319.5,360.5C 321.201,360.034 322.701,360.034 324,360.5C 326.692,365.903 329.858,370.903 333.5,375.5 Z"/></g>
<g><path style="opacity:1" fill="#e7dbad" d="M 345.5,355.5 C 345.67,356.822 345.337,357.989 344.5,359C 340.668,361.75 336.668,364.25 332.5,366.5C 331.614,367.325 331.281,368.325 331.5,369.5C 330.235,367.209 328.902,364.875 327.5,362.5C 332.447,359.021 337.78,356.021 343.5,353.5C 344.522,353.855 345.189,354.522 345.5,355.5 Z"/></g>
<g><path style="opacity:1" fill="#faf3d5" d="M 155.5,359.5 C 156.167,359.5 156.5,359.833 156.5,360.5C 158.546,363.366 161.213,365.533 164.5,367C 174.418,371.129 184.418,374.962 194.5,378.5C 193.438,381.103 193.272,383.77 194,386.5C 196.234,388.7 198.734,390.533 201.5,392C 196.506,395.833 191.173,399.166 185.5,402C 188.76,401.518 192.093,401.518 195.5,402C 194.833,402.667 194.167,403.333 193.5,404C 186.483,408.646 178.817,411.979 170.5,414C 171.328,414.915 172.328,415.581 173.5,416C 175.764,416.236 177.931,416.736 180,417.5C 180.333,417.167 180.667,416.833 181,416.5C 179.331,425.845 176.498,434.845 172.5,443.5C 155.755,445.25 139.755,442.584 124.5,435.5C 126.553,428.657 127.886,421.657 128.5,414.5C 134.813,414.982 141.147,414.482 147.5,413C 138.933,410.764 133.766,405.264 132,396.5C 131.125,390.304 130.625,384.304 130.5,378.5C 132.597,371.41 135.597,364.744 139.5,358.5C 141.759,357.577 143.759,356.244 145.5,354.5C 148.844,356.185 152.177,357.852 155.5,359.5 Z"/></g>
<g><path style="opacity:1" fill="#d2cbaa" d="M 211.5,352.5 C 208.498,358.505 205.498,364.505 202.5,370.5C 198.989,370.101 195.656,369.434 192.5,368.5C 196.027,368.604 199.027,367.437 201.5,365C 187.033,361.452 172.7,357.619 158.5,353.5C 158.216,351.585 158.549,349.919 159.5,348.5C 159.162,352.151 160.828,353.817 164.5,353.5C 164.351,350.393 164.851,347.393 166,344.5C 166.172,347.826 166.005,351.159 165.5,354.5C 177.787,357.823 190.121,360.656 202.5,363C 204.458,360.252 206.291,357.418 208,354.5C 208.816,353.177 209.983,352.511 211.5,352.5 Z"/></g>
<g><path style="opacity:1" fill="#faf3d5" d="M 158.5,353.5 C 172.7,357.619 187.033,361.452 201.5,365C 199.027,367.437 196.027,368.604 192.5,368.5C 181.421,365.52 170.421,362.353 159.5,359C 158.572,358.612 157.905,357.945 157.5,357C 157.989,355.862 158.322,354.695 158.5,353.5 Z"/></g>
<g><path style="opacity:1" fill="#938a5d" d="M 162.5,330.5 C 161.011,336.404 160.011,342.404 159.5,348.5C 158.549,349.919 158.216,351.585 158.5,353.5C 158.322,354.695 157.989,355.862 157.5,357C 157.905,357.945 158.572,358.612 159.5,359C 170.421,362.353 181.421,365.52 192.5,368.5C 195.656,369.434 198.989,370.101 202.5,370.5C 202.167,371.167 201.833,371.833 201.5,372.5C 186.364,369.269 171.364,365.269 156.5,360.5C 156.5,359.833 156.167,359.5 155.5,359.5C 156.594,349.759 157.761,340.092 159,330.5C 153.9,337.057 149.067,343.724 144.5,350.5C 143.833,350.167 143.167,349.833 142.5,349.5C 147.307,341.402 152.974,333.902 159.5,327C 160.448,326.517 161.448,326.351 162.5,326.5C 162.5,327.833 162.5,329.167 162.5,330.5 Z"/></g>
<g><path style="opacity:1" fill="#e7daa9" d="M 155.5,359.5 C 152.177,357.852 148.844,356.185 145.5,354.5C 143.759,356.244 141.759,357.577 139.5,358.5C 141.167,355.833 142.833,353.167 144.5,350.5C 149.067,343.724 153.9,337.057 159,330.5C 157.761,340.092 156.594,349.759 155.5,359.5 Z"/></g>
<g><path style="opacity:1" fill="#fbf4d6" d="M 247.5,365.5 C 250.647,358.048 253.981,350.715 257.5,343.5C 264.827,342.332 272.16,341.499 279.5,341C 284.657,347.49 288.991,354.49 292.5,362C 277.543,365.497 262.543,366.663 247.5,365.5 Z"/></g>
<g><path style="opacity:1" fill="#dfd5a7" d="M 300.5,360.5 C 302.086,362.67 303.42,365.004 304.5,367.5C 301.031,367.547 297.698,368.213 294.5,369.5C 295.578,367.262 295.078,365.262 293,363.5C 277.684,366.422 262.184,367.756 246.5,367.5C 246.328,366.508 246.662,365.842 247.5,365.5C 262.543,366.663 277.543,365.497 292.5,362C 288.991,354.49 284.657,347.49 279.5,341C 272.16,341.499 264.827,342.332 257.5,343.5C 258.476,339.489 260.809,336.823 264.5,335.5C 267.522,335.196 270.522,334.696 273.5,334C 274.766,332.017 276.432,331.017 278.5,331C 286.435,340.428 293.769,350.262 300.5,360.5 Z"/></g>
<g><path style="opacity:1" fill="#faf3d5" d="M 220.5,338.5 C 217.486,343.203 214.486,347.87 211.5,352.5C 209.983,352.511 208.816,353.177 208,354.5C 206.291,357.418 204.458,360.252 202.5,363C 190.121,360.656 177.787,357.823 165.5,354.5C 166.005,351.159 166.172,347.826 166,344.5C 164.851,347.393 164.351,350.393 164.5,353.5C 160.828,353.817 159.162,352.151 159.5,348.5C 160.011,342.404 161.011,336.404 162.5,330.5C 163.202,327.797 164.869,325.797 167.5,324.5C 168.298,326.078 168.798,327.744 169,329.5C 170.178,322.924 174.011,320.757 180.5,323C 186.799,328.065 193.632,332.232 201,335.5C 202.033,335.452 202.366,335.119 202,334.5C 199.572,333.37 197.405,331.87 195.5,330C 196.167,329.833 196.833,329.667 197.5,329.5C 205.347,331.751 213.347,333.085 221.5,333.5C 221.703,335.39 221.037,336.89 219.5,338C 219.728,338.399 220.062,338.565 220.5,338.5 Z"/></g>
<g><path style="opacity:1" fill="#f9f2d5" d="M 327.5,317.5 C 333.85,324.358 339.683,331.691 345,339.5C 345.445,341.594 344.612,343.094 342.5,344C 344.126,343.805 345.793,343.805 347.5,344C 348.022,344.561 348.355,345.228 348.5,346C 346.825,348.685 344.492,350.685 341.5,352C 336.261,354.787 330.928,357.287 325.5,359.5C 319.238,349.577 312.238,340.244 304.5,331.5C 309.159,328.749 313.992,326.082 319,323.5C 319.291,325.783 318.791,327.95 317.5,330C 318.036,331.377 319.036,331.377 320.5,330C 323.489,326.199 325.822,322.032 327.5,317.5 Z"/></g>
<g><path style="opacity:1" fill="#e0d6a9" d="M 157.5,310.5 C 166.81,316.152 176.81,320.152 187.5,322.5C 200.168,326.389 213.168,328.556 226.5,329C 227.056,329.383 227.389,329.883 227.5,330.5C 225.157,333.207 222.823,335.874 220.5,338.5C 220.062,338.565 219.728,338.399 219.5,338C 221.037,336.89 221.703,335.39 221.5,333.5C 213.347,333.085 205.347,331.751 197.5,329.5C 196.833,329.667 196.167,329.833 195.5,330C 197.405,331.87 199.572,333.37 202,334.5C 202.366,335.119 202.033,335.452 201,335.5C 193.632,332.232 186.799,328.065 180.5,323C 174.011,320.757 170.178,322.924 169,329.5C 168.798,327.744 168.298,326.078 167.5,324.5C 164.869,325.797 163.202,327.797 162.5,330.5C 162.5,329.167 162.5,327.833 162.5,326.5C 161.448,326.351 160.448,326.517 159.5,327C 152.974,333.902 147.307,341.402 142.5,349.5C 142.189,350.478 141.522,351.145 140.5,351.5C 134.591,349.601 133.091,345.934 136,340.5C 141.962,329.551 149.129,319.551 157.5,310.5 Z"/></g>
<g><path style="opacity:1" fill="#e2d8ab" d="M 324.5,315.5 C 326.027,315.427 327.027,316.094 327.5,317.5C 325.822,322.032 323.489,326.199 320.5,330C 319.036,331.377 318.036,331.377 317.5,330C 318.791,327.95 319.291,325.783 319,323.5C 313.992,326.082 309.159,328.749 304.5,331.5C 302.871,330.375 301.371,329.041 300,327.5C 299.308,326.563 299.475,325.897 300.5,325.5C 308.949,323.277 316.949,319.943 324.5,315.5 Z"/></g>
<g><path style="opacity:1" fill="#e8dcab" d="M 130.5,378.5 C 130.625,384.304 131.125,390.304 132,396.5C 133.766,405.264 138.933,410.764 147.5,413C 141.147,414.482 134.813,414.982 128.5,414.5C 127.886,421.657 126.553,428.657 124.5,435.5C 120.738,433.905 118.738,431.072 118.5,427C 121.08,410.359 125.08,394.192 130.5,378.5 Z"/></g>
<g><path style="opacity:1" fill="#3b4f49" d="M 126.5,440.5 C 128.735,440.205 130.735,440.539 132.5,441.5C 128.837,442.266 125.171,443.1 121.5,444C 120.944,444.383 120.611,444.883 120.5,445.5C 118.516,445.383 116.85,446.05 115.5,447.5C 114.438,446.575 114.438,445.575 115.5,444.5C 118.801,442.416 122.468,441.082 126.5,440.5 Z"/></g>
<g><path style="opacity:1" fill="#70a4a5" d="M 352.5,441.5 C 365.19,442.259 375.356,447.593 383,457.5C 383.495,459.473 383.662,461.473 383.5,463.5C 382.167,463.5 380.833,463.5 379.5,463.5C 379.071,460.637 378.071,457.971 376.5,455.5C 376.167,456 375.833,456.5 375.5,457C 379.202,463.793 377.202,467.293 369.5,467.5C 368.608,459.444 364.275,454.944 356.5,454C 361.76,456.507 365.427,460.507 367.5,466C 366.672,466.915 365.672,467.581 364.5,468C 354.047,468.598 343.714,467.764 333.5,465.5C 331.269,463.799 328.769,462.466 326,461.5C 325.365,459.365 325.699,457.365 327,455.5C 333.697,447.568 342.197,442.901 352.5,441.5 Z"/></g>
<g><path style="opacity:1" fill="#5d867d" d="M 132.5,441.5 C 144.091,444.59 155.758,446.257 167.5,446.5C 167.33,450.366 166.997,454.366 166.5,458.5C 161.723,462.222 156.389,464.889 150.5,466.5C 151.974,464.073 151.807,461.74 150,459.5C 145.861,453.692 140.361,449.859 133.5,448C 128.953,447.571 124.619,446.738 120.5,445.5C 120.611,444.883 120.944,444.383 121.5,444C 125.171,443.1 128.837,442.266 132.5,441.5 Z"/></g>
<g><path style="opacity:1" fill="#5d857c" d="M 301.5,439.5 C 317.114,441.727 332.781,442.061 348.5,440.5C 350.099,440.232 351.432,440.566 352.5,441.5C 342.197,442.901 333.697,447.568 327,455.5C 325.699,457.365 325.365,459.365 326,461.5C 328.769,462.466 331.269,463.799 333.5,465.5C 324.054,464.59 314.721,463.09 305.5,461C 303.552,460.017 301.718,458.85 300,457.5C 299.631,454.123 299.631,450.79 300,447.5C 299.292,448.381 298.458,449.047 297.5,449.5C 298.639,446.082 299.972,442.749 301.5,439.5 Z"/></g>
<g><path style="opacity:1" fill="#e7e9d3" d="M 297.5,449.5 C 296.553,454.223 297.886,458.056 301.5,461C 310.653,464.402 319.986,466.569 329.5,467.5C 270.547,469.103 211.547,469.77 152.5,469.5C 156.937,466.441 161.603,463.608 166.5,461C 168.93,458.695 169.93,455.862 169.5,452.5C 169.5,451.5 169.5,450.5 169.5,449.5C 212.071,448.169 254.738,448.169 297.5,449.5 Z"/></g>
<g><path style="opacity:1" fill="#70a3a4" d="M 115.5,444.5 C 114.438,445.575 114.438,446.575 115.5,447.5C 116.85,446.05 118.516,445.383 120.5,445.5C 124.619,446.738 128.953,447.571 133.5,448C 140.361,449.859 145.861,453.692 150,459.5C 151.807,461.74 151.974,464.073 150.5,466.5C 143.755,471.361 136.089,473.527 127.5,473C 125.993,471.527 125.326,469.693 125.5,467.5C 126.435,463.989 127.602,460.656 129,457.5C 124.146,460.948 122.313,465.614 123.5,471.5C 105.818,473.262 102.818,467.428 114.5,454C 110.085,455.429 107.252,458.596 106,463.5C 105.505,465.473 105.338,467.473 105.5,469.5C 104.178,469.67 103.011,469.337 102,468.5C 101.333,465.5 101.333,462.5 102,459.5C 105,455.167 108.667,451.5 113,448.5C 113.692,447.563 113.525,446.897 112.5,446.5C 112.973,445.094 113.973,444.427 115.5,444.5 Z"/></g>
<g><path style="opacity:1" fill="#4e605c" d="M 348.5,440.5 C 350.265,439.539 352.265,439.205 354.5,439.5C 366.158,440.436 375.991,445.102 384,453.5C 384.735,455.871 385.568,458.205 386.5,460.5C 386.043,462.598 385.043,464.264 383.5,465.5C 383.5,464.833 383.5,464.167 383.5,463.5C 383.662,461.473 383.495,459.473 383,457.5C 375.356,447.593 365.19,442.259 352.5,441.5C 351.432,440.566 350.099,440.232 348.5,440.5 Z"/></g>
<g><path style="opacity:1" fill="#e5e6d4" d="M 104.5,452.5 C 103.223,454.95 101.723,457.283 100,459.5C 99.013,463.475 99.513,467.141 101.5,470.5C 88.7736,470.112 76.4403,467.778 64.5,463.5C 61.9357,461.684 61.9357,459.851 64.5,458C 77.5641,454.288 90.8974,452.455 104.5,452.5 Z"/></g>
<g><path style="opacity:0.486" fill="#3e5451" d="M 333.5,465.5 C 343.714,467.764 354.047,468.598 364.5,468C 365.672,467.581 366.672,466.915 367.5,466C 365.427,460.507 361.76,456.507 356.5,454C 364.275,454.944 368.608,459.444 369.5,467.5C 377.202,467.293 379.202,463.793 375.5,457C 375.833,456.5 376.167,456 376.5,455.5C 378.071,457.971 379.071,460.637 379.5,463.5C 380.833,463.5 382.167,463.5 383.5,463.5C 383.5,464.167 383.5,464.833 383.5,465.5C 379.927,466.182 376.594,467.682 373.5,470C 371.559,470.743 369.726,470.576 368,469.5C 364.644,470.738 361.144,471.404 357.5,471.5C 348.001,470.952 338.668,469.619 329.5,467.5C 319.986,466.569 310.653,464.402 301.5,461C 297.886,458.056 296.553,454.223 297.5,449.5C 298.458,449.047 299.292,448.381 300,447.5C 299.631,450.79 299.631,454.123 300,457.5C 301.718,458.85 303.552,460.017 305.5,461C 314.721,463.09 324.054,464.59 333.5,465.5 Z"/></g>
<g><path style="opacity:0.992" fill="#3d524e" d="M 112.5,446.5 C 113.525,446.897 113.692,447.563 113,448.5C 108.667,451.5 105,455.167 102,459.5C 101.333,462.5 101.333,465.5 102,468.5C 103.011,469.337 104.178,469.67 105.5,469.5C 105.338,467.473 105.505,465.473 106,463.5C 107.252,458.596 110.085,455.429 114.5,454C 102.818,467.428 105.818,473.262 123.5,471.5C 122.313,465.614 124.146,460.948 129,457.5C 127.602,460.656 126.435,463.989 125.5,467.5C 125.326,469.693 125.993,471.527 127.5,473C 136.089,473.527 143.755,471.361 150.5,466.5C 156.389,464.889 161.723,462.222 166.5,458.5C 166.997,454.366 167.33,450.366 167.5,446.5C 168.167,448.5 168.833,450.5 169.5,452.5C 169.93,455.862 168.93,458.695 166.5,461C 161.603,463.608 156.937,466.441 152.5,469.5C 146.127,472.805 139.293,474.805 132,475.5C 128.432,475.644 125.099,474.978 122,473.5C 118.861,474.426 115.694,474.592 112.5,474C 108.839,472.407 105.172,471.241 101.5,470.5C 99.513,467.141 99.013,463.475 100,459.5C 101.723,457.283 103.223,454.95 104.5,452.5C 106.596,449.738 109.262,447.738 112.5,446.5 Z"/></g>
</svg>
